<?xml version="1.0" encoding="UTF-8"?>
<svg width="11px" height="16px" viewBox="0 0 11 16" version="1.1" xmlns="http://www.w3.org/2000/svg" xmlns:xlink="http://www.w3.org/1999/xlink">
    <title>next copy</title>
    <g id="Main.Landing" stroke="none" stroke-width="1" fill="none" fill-rule="evenodd">
        <g id="Home-Landing-Final" transform="translate(-134.000000, -4293.000000)" fill="#FFFFFF" fill-rule="nonzero">
            <g id="Group-23" transform="translate(-46.000000, -632.000000)">
                <g id="next-copy" transform="translate(185.500000, 4933.000000) scale(-1, 1) translate(-185.500000, -4933.000000) translate(180.000000, 4925.000000)">
                    <path d="M9.97889189,7.56093743 L1.60495418,0.180933456 C1.33059188,-0.0607219007 0.886392987,-0.0603156522 0.612490373,0.182183452 C0.338799922,0.424651306 0.339507132,0.817431104 0.613904794,1.05927396 L8.48940056,8.00002956 L0.61362191,14.9407539 C0.339259609,15.182628 0.338552398,15.5751578 0.612207489,15.8176569 C0.749512401,15.939219 0.929391384,16 1.10927037,16 C1.28868966,16 1.46786143,15.9396252 1.60491882,15.8189069 L9.97889189,8.43909044 C10.1110342,8.32290337 10.1851852,8.16477895 10.1851852,8.00002956 C10.1851852,7.83528017 10.110822,7.67734325 9.97889189,7.56093743 Z" id="Path"></path>
                </g>
            </g>
        </g>
    </g>
</svg>