<?xml version="1.0" encoding="UTF-8"?>
<svg width="95px" height="143px" viewBox="0 0 95 143" version="1.1" xmlns="http://www.w3.org/2000/svg" xmlns:xlink="http://www.w3.org/1999/xlink">
    <title>Group 27</title>
    <defs>
        <linearGradient x1="-9.53417722%" y1="49.9921747%" x2="181.514216%" y2="49.9921747%" id="linearGradient-1">
            <stop stop-color="#FF0051" offset="0%"></stop>
            <stop stop-color="#FF411F" offset="100%"></stop>
        </linearGradient>
    </defs>
    <g id="Why-Lviv" stroke="none" stroke-width="1" fill="none" fill-rule="evenodd">
        <g transform="translate(-981.000000, -1108.000000)" fill-rule="nonzero" id="Group-27">
            <g transform="translate(981.000000, 1108.000000)">
                <path d="M84.2314393,95.7400417 L84.2314393,73.590509 L84.2314393,50.1512567 L84.2314393,25.3101352 L91.2534458,34.0577987 C91.6435572,34.5624716 92.2008593,34.7867707 92.7581614,34.7867707 C93.2040031,34.7867707 93.6498448,34.6185464 93.984226,34.3381726 C94.8201792,33.6652754 94.9316396,32.4316305 94.2628771,31.590509 L83.7855977,18.5250885 C83.3954862,18.0764903 82.8381841,17.7961165 82.280882,17.7961165 C81.6678497,17.7961165 81.1662778,18.0764903 80.7761663,18.5250885 L70.1316963,31.590509 C69.4629338,32.4316305 69.5743942,33.6652754 70.4103473,34.3381726 C71.2463005,35.0110698 72.4723651,34.8989202 73.1411276,34.0577987 L80.2745945,25.2540604 L80.2745945,50.0951819 L80.2745945,73.5344343 L80.2745945,95.7961165 L84.2314393,95.7400417 Z" id="Path" fill="#4AF6CD"></path>
                <path d="M64.9357352,17.1806776 C64.8714703,16.9457282 64.8072055,16.8282535 64.7429406,16.7107788 C64.7429406,16.6520414 64.6786758,16.6520414 64.6786758,16.593304 C64.6144109,16.4758293 64.5501461,16.3583546 64.4216164,16.2996172 C64.3573515,16.2408799 64.3573515,16.2408799 64.2930867,16.1821425 C64.164557,16.0646678 64.0360273,15.9471931 63.8432327,15.8884557 L33.06037,0.264318117 C32.3534567,-0.0881060391 31.5822785,-0.0881060391 30.8753651,0.264318117 L1.09250243,15.8884557 C1.02823759,15.8884557 1.02823759,15.9471931 1.02823759,15.9471931 C0.899707887,16.0059304 0.771178189,16.1234052 0.70691334,16.1821425 C0.642648491,16.2408799 0.642648491,16.2408799 0.578383642,16.2996172 C0.514118793,16.417092 0.385589094,16.4758293 0.321324245,16.593304 C0.321324245,16.6520414 0.257059396,16.6520414 0.257059396,16.7107788 C0.192794547,16.8282535 0.128529698,17.0044656 0.0642648491,17.1806776 C0.0642648491,17.1806776 0.0642648491,17.239415 0.0642648491,17.239415 C0,17.3568897 0,17.5331018 0,17.6505765 C0,17.6505765 0,17.7093139 0,17.7093139 L0,126.142378 C0,126.905964 0.449853944,127.610812 1.22103213,127.963236 L32.0321324,142.647576 L32.3534567,142.765051 C32.6747809,142.882525 32.9961052,143 33.3174294,143 C33.3816943,143 33.4459591,143 33.510224,143 C33.5744888,143 33.6387537,143 33.7672833,143 C33.895813,143 34.0243427,142.941263 34.1528724,142.882525 C34.2171373,142.823788 34.345667,142.823788 34.4099318,142.765051 L63.8432327,127.963236 C64.5501461,127.610812 65,126.905964 65,126.142378 L65,17.7093139 C65,17.7093139 65,17.6505765 65,17.6505765 C65,17.4743644 65,17.3568897 64.9357352,17.1806776 Z M31,138 L4,125.339885 L4,21 L31,35.0081823 L31,138 Z M33.7030675,31 L6.8951699,17 L31.9520405,3.89393375 L59.2976121,17.7961165 L33.7030675,31 Z M61,125.418693 L35,138 L35,35.5112882 L61,21.8685789 L61,125.418693 Z" id="Shape-Copy-4" fill="url(#linearGradient-1)"></path>
            </g>
        </g>
    </g>
</svg>