<?xml version="1.0" encoding="UTF-8"?>
<svg width="95px" height="255px" viewBox="0 0 95 255" version="1.1" xmlns="http://www.w3.org/2000/svg" xmlns:xlink="http://www.w3.org/1999/xlink">
    <title>Group 18</title>
    <defs>
        <linearGradient x1="-9.53417722%" y1="49.9921747%" x2="181.514216%" y2="49.9921747%" id="linearGradient-1">
            <stop stop-color="#FF0051" offset="0%"></stop>
            <stop stop-color="#FF411F" offset="100%"></stop>
        </linearGradient>
    </defs>
    <g id="Why-Lviv" stroke="none" stroke-width="1" fill="none" fill-rule="evenodd">
        <g transform="translate(-806.000000, -997.000000)" fill-rule="nonzero" id="Group-18">
            <g transform="translate(806.000000, 997.796117)">
                <path d="M84.2314393,77.9439252 L84.2314393,55.7943925 L84.2314393,32.3551402 L84.2314393,7.51401869 L91.2534458,16.2616822 C91.6435572,16.7663551 92.2008593,16.9906542 92.7581614,16.9906542 C93.2040031,16.9906542 93.6498448,16.8224299 93.984226,16.5420561 C94.8201792,15.8691589 94.9316396,14.635514 94.2628771,13.7943925 L83.7855977,0.728971963 C83.3954862,0.280373832 82.8381841,0 82.280882,0 C81.6678497,0 81.1662778,0.280373832 80.7761663,0.728971963 L70.1316963,13.7943925 C69.4629338,14.635514 69.5743942,15.8691589 70.4103473,16.5420561 C71.2463005,17.2149533 72.4723651,17.1028037 73.1411276,16.2616822 L80.2745945,7.45794393 L80.2745945,32.2990654 L80.2745945,55.7383178 L80.2745945,78 L84.2314393,77.9439252 Z" id="Path-Copy" fill="#4AF6CD"></path>
                <path d="M64.9357352,20.0235119 C64.8714703,19.7798247 64.8072055,19.6579811 64.7429406,19.5361375 C64.7429406,19.4752157 64.6786758,19.4752157 64.6786758,19.4142939 C64.6144109,19.2924503 64.5501461,19.1706067 64.4216164,19.1096848 C64.3573515,19.048763 64.3573515,19.048763 64.2930867,18.9878412 C64.164557,18.8659976 64.0360273,18.744154 63.8432327,18.6832322 L33.06037,2.47803163 C32.3534567,2.11250079 31.5822785,2.11250079 30.8753651,2.47803163 L1.09250243,18.6832322 C1.02823759,18.6832322 1.02823759,18.744154 1.02823759,18.744154 C0.899707887,18.8050758 0.771178189,18.9269194 0.70691334,18.9878412 C0.642648491,19.048763 0.642648491,19.048763 0.578383642,19.1096848 C0.514118793,19.2315285 0.385589094,19.2924503 0.321324245,19.4142939 C0.321324245,19.4752157 0.257059396,19.4752157 0.257059396,19.5361375 C0.192794547,19.6579811 0.128529698,19.8407465 0.0642648491,20.0235119 C0.0642648491,20.0235119 0.0642648491,20.0844338 0.0642648491,20.0844338 C0,20.2062774 0,20.3890428 0,20.5108864 C0,20.5108864 0,20.5718082 0,20.5718082 L0,235.719325 C0,236.511308 0.449853944,237.24237 1.22103213,237.607901 L32.0321324,252.838353 L32.3534567,252.960196 C32.6747809,253.08204 32.9961052,253.203883 33.3174294,253.203883 C33.3816943,253.203883 33.4459591,253.203883 33.510224,253.203883 C33.5744888,253.203883 33.6387537,253.203883 33.7672833,253.203883 C33.895813,253.203883 34.0243427,253.142962 34.1528724,253.08204 C34.2171373,253.021118 34.345667,253.021118 34.4099318,252.960196 L63.8432327,237.607901 C64.5501461,237.24237 65,236.511308 65,235.719325 L65,20.5718082 C65,20.5718082 65,20.5108864 65,20.5108864 C65,20.328121 65,20.2062774 64.9357352,20.0235119 Z M31,246.063987 L4,234.042957 L4,26.4937264 L31,40.2762847 L31,246.063987 Z M33.651866,35.9775935 L4.99484324,21.5907385 L32.402454,7.2038835 L60.6365628,21.847512 L33.651866,35.9775935 Z M61,234.141929 L35,247.063987 L35,40.7664017 L61,27.0639871 L61,234.141929 Z" id="Shape-Copy-3" fill="url(#linearGradient-1)"></path>
            </g>
        </g>
    </g>
</svg>