<?xml version="1.0" encoding="UTF-8"?>
<svg width="96px" height="100px" viewBox="0 0 96 100" version="1.1" xmlns="http://www.w3.org/2000/svg" xmlns:xlink="http://www.w3.org/1999/xlink">
    <title>Group 29</title>
    <defs>
        <linearGradient x1="-9.53417722%" y1="49.9921747%" x2="181.514216%" y2="49.9921747%" id="linearGradient-1">
            <stop stop-color="#FF0051" offset="0%"></stop>
            <stop stop-color="#FF411F" offset="100%"></stop>
        </linearGradient>
    </defs>
    <g id="Why-Lviv" stroke="none" stroke-width="1" fill="none" fill-rule="evenodd">
        <g transform="translate(-1145.000000, -1151.000000)" fill-rule="nonzero" id="Group-29">
            <g transform="translate(1145.000000, 1151.000000)">
                <path d="M85.2314393,95.7400417 L85.2314393,73.590509 L85.2314393,50.1512567 L85.2314393,25.3101352 L92.2534458,34.0577987 C92.6435572,34.5624716 93.2008593,34.7867707 93.7581614,34.7867707 C94.2040031,34.7867707 94.6498448,34.6185464 94.984226,34.3381726 C95.8201792,33.6652754 95.9316396,32.4316305 95.2628771,31.590509 L84.7855977,18.5250885 C84.3954862,18.0764903 83.8381841,17.7961165 83.280882,17.7961165 C82.6678497,17.7961165 82.1662778,18.0764903 81.7761663,18.5250885 L71.1316963,31.590509 C70.4629338,32.4316305 70.5743942,33.6652754 71.4103473,34.3381726 C72.2463005,35.0110698 73.4723651,34.8989202 74.1411276,34.0577987 L81.2745945,25.2540604 L81.2745945,50.0951819 L81.2745945,73.5344343 L81.2745945,95.7961165 L85.2314393,95.7400417 Z" id="Path-Copy-2" fill="#4AF6CD"></path>
                <path d="M65.9357352,16.586334 C65.8714703,16.3595123 65.8072055,16.2461015 65.7429406,16.1326907 C65.7429406,16.0759853 65.6786758,16.0759853 65.6786758,16.0192798 C65.6144109,15.905869 65.5501461,15.7924582 65.4216164,15.7357528 C65.3573515,15.6790473 65.3573515,15.6790473 65.2930867,15.6223419 C65.164557,15.5089311 65.0360273,15.3955203 64.8432327,15.3388149 L34.06037,0.255174369 C33.3534567,-0.0850581231 32.5822785,-0.0850581231 31.8753651,0.255174369 L1.09250243,15.3388149 C1.02823759,15.3388149 1.02823759,15.3955203 1.02823759,15.3955203 C0.899707887,15.4522257 0.771178189,15.5656365 0.70691334,15.6223419 C0.642648491,15.6790473 0.642648491,15.6790473 0.578383642,15.7357528 C0.514118793,15.8491636 0.385589094,15.905869 0.321324245,16.0192798 C0.321324245,16.0759853 0.257059396,16.0759853 0.257059396,16.1326907 C0.192794547,16.2461015 0.128529698,16.4162177 0.0642648491,16.586334 C0.0642648491,16.586334 0.0642648491,16.6430394 0.0642648491,16.6430394 C0,16.7564502 0,16.9265665 0,17.0399773 C0,17.0399773 0,17.0966827 0,17.0966827 L0,83.7255458 C0,84.4627162 0.449853944,85.1431812 1.22103213,85.4834137 L33.0321324,99.6597675 L33.3534567,99.7731783 C33.6747809,99.8865892 33.9961052,100 34.3174294,100 C34.3816943,100 34.4459591,100 34.510224,100 C34.5744888,100 34.6387537,100 34.7672833,100 C34.895813,100 35.0243427,99.9432946 35.1528724,99.8865892 C35.2171373,99.8298838 35.345667,99.8298838 35.4099318,99.7731783 L64.8432327,85.4834137 C65.5501461,85.1431812 66,84.4627162 66,83.7255458 L66,17.0966827 C66,17.0966827 66,17.0399773 66,17.0399773 C66,16.8698611 66,16.7564502 65.9357352,16.586334 Z M32,94 L4,82.4043316 L4,22.4393541 L32,34.8310933 L32,94 Z M33.402454,30.5461763 L5.43652152,17.7961165 L33.402454,4.29005457 L59.0895094,17.4181154 L33.402454,30.5461763 Z M62,82.4765127 L36,94 L36,34.2268345 L62,21.5412 L62,82.4765127 Z" id="Shape-Copy-2" fill="url(#linearGradient-1)"></path>
            </g>
        </g>
    </g>
</svg>