<?xml version="1.0" encoding="UTF-8"?>
<svg width="24px" height="24px" viewBox="0 0 24 24" version="1.1" xmlns="http://www.w3.org/2000/svg" xmlns:xlink="http://www.w3.org/1999/xlink">
    <title>Path</title>
    <g id="Main.Landing" stroke="none" stroke-width="1" fill="none" fill-rule="evenodd">
        <g id="Home-Landing-Final" transform="translate(-709.000000, -4958.000000)" fill="#FFFFFF">
            <g id="Group-23" transform="translate(-46.000000, -632.000000)">
                <g id="Group-5" transform="translate(46.000000, 5391.000000)">
                    <path d="M731.269104,199 L710.730896,199 C709.774902,199 709,199.774902 709,200.730896 L709,221.269104 C709,222.225098 709.774902,223 710.730896,223 L721.820312,223 L721.820312,213.71875 L718.703125,213.71875 L718.703125,210.085938 L721.820312,210.085938 L721.820312,207.412415 C721.820312,204.312073 723.713074,202.624573 726.478699,202.624573 C727.803284,202.624573 728.94165,202.723267 729.273438,202.767395 L729.273438,206.007812 L727.366394,206.007812 C725.861633,206.007812 725.570312,206.722839 725.570312,207.772217 L725.570312,210.085938 L729.167969,210.085938 L728.699219,213.71875 L725.570312,213.71875 L725.570312,223 L731.269104,223 C732.225098,223 733,222.225098 733,221.269104 L733,200.730896 C733,199.774902 732.225098,199 731.269104,199 Z" id="Path"></path>
                </g>
            </g>
        </g>
    </g>
</svg>