<?xml version="1.0" encoding="UTF-8"?>
<svg width="70px" height="70px" viewBox="0 0 70 70" version="1.1" xmlns="http://www.w3.org/2000/svg" xmlns:xlink="http://www.w3.org/1999/xlink">
    <title>technical-support</title>
    <defs>
        <linearGradient x1="-9.53417722%" y1="49.9921747%" x2="181.514216%" y2="49.9921747%" id="linearGradient-1">
            <stop stop-color="#FF0051" offset="0%"></stop>
            <stop stop-color="#FF411F" offset="100%"></stop>
        </linearGradient>
        <linearGradient x1="-9.53417722%" y1="49.9921747%" x2="181.514216%" y2="49.9921747%" id="linearGradient-2">
            <stop stop-color="#FF0051" offset="0%"></stop>
            <stop stop-color="#FF411F" offset="100%"></stop>
        </linearGradient>
    </defs>
    <g id="Why-Lviv" stroke="none" stroke-width="1" fill="none" fill-rule="evenodd">
        <g transform="translate(-164.000000, -1357.000000)" fill-rule="nonzero" id="technical-support">
            <g transform="translate(164.000000, 1357.000000)">
                <path d="M66.3925434,16.673045 C65.9916132,15.2649921 65.4315133,13.9140454 64.7195617,12.6368009 L65.2016449,12.1546 C65.7532506,11.6032705 66.0568232,10.8679468 66.0568232,10.0840109 C66.0568232,9.30007497 65.7532506,8.56488188 65.2012529,8.01289902 L61.9891072,4.80462928 C61.4375015,4.24964082 60.7012432,3.94411622 59.9158487,3.94411622 C59.1305849,3.94411622 58.394196,4.24964082 57.8453346,4.80188505 L57.3637741,5.2834326 C56.0855806,4.56927863 54.7340748,4.00814832 53.3268988,3.60735962 L53.3268988,2.92927271 C53.3270295,1.31409558 52.0130293,0 50.3976781,0 L45.8562424,0 C44.2410218,0 42.9268909,1.31409558 42.9268909,2.92927271 L42.9268909,3.60735962 C41.5199763,4.00801764 40.1676865,4.56927863 38.8868793,5.28395531 L38.4075404,4.80462928 C37.8556734,4.24964082 37.1194151,3.94411622 36.3341513,3.94424689 C35.5488875,3.94424689 34.8126292,4.24990218 34.2637678,4.80201572 L31.0522755,8.0135524 C30.5006698,8.56488188 30.1970972,9.30020565 30.1970972,10.0841415 C30.1970972,10.8680774 30.5006698,11.6032705 31.0521448,12.1546 L31.5340974,12.6366703 C30.8191401,13.9178351 30.2587788,15.2690431 29.8600702,16.673045 L29.1793515,16.673045 C27.5641309,16.673045 26.25,17.9871406 26.25,19.6023177 L26.25,24.1475516 C26.25,25.7627288 27.5641309,27.0768243 29.1793515,27.0768243 L29.8600702,27.0768243 C30.2587788,28.4806955 30.8191401,29.8319036 31.5340974,31.1131991 L31.0521448,31.5952693 C30.5005392,32.1465988 30.1969666,32.8819226 30.1969666,33.6658585 C30.1969666,34.4496637 30.5005392,35.1849874 31.0520141,35.7363169 L34.2610235,38.94524 C34.8126292,39.5002285 35.5487568,39.8057531 36.3340206,39.8057531 C37.1194151,39.8057531 37.855804,39.5002285 38.4047961,38.9479843 L38.8867486,38.465914 C40.1688626,39.1812441 41.5211524,39.741721 42.9267602,40.1402882 L42.9267602,40.8207273 C42.9267602,42.4359044 44.2408911,43.75 45.8561117,43.75 L50.3975474,43.75 C52.0127679,43.75 53.3268988,42.4359044 53.3268988,40.8207273 L53.3268988,40.1402882 C54.7328987,39.7415903 56.0841431,39.1813748 57.3637741,38.4664367 L57.8425903,38.94524 C58.394196,39.5002285 59.1304543,39.8057531 59.915718,39.8057531 C60.7011125,39.8057531 61.4375015,39.5000978 61.9858401,38.948507 L65.2016449,35.7363169 C65.7531199,35.1848568 66.0566925,34.449533 66.0566925,33.6657278 C66.0566925,32.8817919 65.7531199,32.1465988 65.2016449,31.5952693 L64.719431,31.1130684 C65.4313826,29.8358239 65.9913519,28.4848772 66.3924127,27.0768243 L67.0706485,27.0768243 C68.6858691,27.0768243 70,25.7627288 70,24.1475516 L70,19.6023177 C70,17.9871406 68.6861305,16.673045 67.0707792,16.673045 L66.3925434,16.673045 Z M50.242457,40.8133696 C50.242457,40.9823414 50.0997912,41.125 49.9308108,41.125 L45.448059,41.125 C45.2790786,41.125 45.1364128,40.9823414 45.1364128,40.8133696 L45.1364128,39.1387433 L45.1364128,31.0070734 C45.1364128,30.4676536 44.800774,29.9852457 44.2951229,29.7976999 C40.8288329,28.5122246 38.5,25.1763864 38.5,21.4969293 C38.5,18.5809408 39.95207,15.8474677 42.3835811,14.185482 C42.4927088,14.110928 42.5891953,14.0500466 42.6735565,14 C42.6689128,14.1678109 42.6570455,14.3272377 42.6507248,14.4104337 C42.6410504,14.5413546 42.6333108,14.6446725 42.6333108,14.7472164 L42.6333108,20.8349727 C42.6333108,23.6291983 44.816769,25.9628146 47.6039128,26.1476516 C47.6607985,26.1513922 47.7178133,26.1513922 47.774699,26.1476516 C50.5599079,25.9629435 52.7416892,23.6293273 52.7416892,20.8349727 L52.7416892,14.7472164 C52.7416892,14.6451884 52.7340786,14.5425155 52.7245332,14.4123685 C52.7183415,14.3287855 52.7064742,14.1684558 52.7019595,14 C52.7860627,14.0497886 52.8820332,14.1105411 52.990774,14.184966 C55.42293,15.8473387 56.875,18.5808119 56.875,21.4968003 C56.875,25.1758704 54.547457,28.5118376 51.083231,29.7976999 C50.5777088,29.9853746 50.242199,30.4676536 50.242199,31.0069444 L50.242199,39.1386143 L50.242199,40.8133696 L50.242457,40.8133696 Z M67.375,24.2899888 C67.375,24.4591942 67.2272873,24.6076268 67.0592003,24.6076268 L65.3673605,24.6076268 C64.7571802,24.6076268 64.2282354,25.0329409 64.093583,25.632062 C63.6799612,27.4717592 62.9636002,29.2114057 61.9643516,30.8026196 C61.6381036,31.3221996 61.7130701,32.0000728 62.1448458,32.4347215 L63.3444404,33.642298 C63.4222802,33.7206558 63.4339039,33.8161049 63.4339039,33.8660646 C63.4339039,33.9158927 63.4222802,34.0114733 63.3448323,34.0893052 L60.1281947,37.3237961 C60.0546648,37.3982096 59.9680746,37.4138549 59.9085193,37.4138549 C59.8490947,37.4138549 59.7626351,37.3982096 59.6863625,37.3209037 L58.4867679,36.1133271 C58.0543392,35.6781525 57.3802937,35.6032131 56.864148,35.9324207 C55.7493152,36.6435564 54.5626503,37.2078372 53.3236134,37.625 L53.3236134,31.9435395 C57.3754614,30.0453369 60.0392536,25.908812 60.0392536,21.3753709 C60.0392536,17.5341336 58.1435415,13.9365151 54.9685665,11.7518336 C54.4821985,11.4172356 53.003112,10.3992426 51.7094828,11.1487684 C50.4392316,11.8850154 50.5657865,13.6108573 50.6197258,14.3478932 C50.6244275,14.4119203 50.6289987,14.4656927 50.6300435,14.4957999 L50.6300435,20.7009161 C50.6300435,22.1400161 49.5374133,23.3465409 48.1266325,23.4852445 C46.7138928,23.3464094 45.6195647,22.1398846 45.6195647,20.7009161 L45.6194341,14.505266 C45.6206095,14.4656927 45.6253112,14.4119203 45.630013,14.3476302 C45.6844747,13.6109888 45.8120745,11.8860672 44.5428681,11.1494257 C43.2497613,10.3985853 41.7684546,11.4169727 41.2811723,11.7518336 C38.1059361,13.9366466 36.2103546,17.5342651 36.2103546,21.3755024 C36.2103546,25.9096008 38.8755835,30.0463887 42.9296517,31.9440654 L42.9296517,37.625 C41.6903536,37.2079687 40.5022521,36.643425 39.3841541,35.9318948 C39.1691805,35.7951632 38.9273025,35.7285066 38.6866,35.7285066 C38.3492507,35.7285066 38.0146441,35.8598478 37.7627097,36.11359 L36.5606336,37.3237961 C36.4871037,37.3983411 36.4005135,37.4139863 36.3409582,37.4139863 C36.281403,37.4139863 36.195074,37.3983411 36.1188014,37.3211666 L32.9090859,34.0899625 C32.8311155,34.0116048 32.8194917,33.9160242 32.8194917,33.866196 C32.8194917,33.8162364 32.8311155,33.7207872 32.9090859,33.642298 L34.1085499,32.4347215 C34.5403256,32.0000728 34.6152921,31.3221996 34.2890441,30.8026196 C33.284702,29.2029915 32.5684715,27.4641338 32.1603351,25.634297 C32.0265969,25.0341242 31.4971297,24.6074954 30.8860352,24.6074954 L29.1905384,24.6074954 C29.0224515,24.6074954 28.875,24.4590627 28.875,24.2898574 L28.875,19.7169745 C28.875,19.5447453 29.0194476,19.3993365 29.1905384,19.3993365 L30.8860352,19.3993365 C31.4971297,19.3993365 32.0264663,18.9727077 32.1603351,18.3725349 C32.5684715,16.5426981 33.2845714,14.8037089 34.2890441,13.2042123 C34.6152921,12.6846323 34.5403256,12.0067591 34.1085499,11.5721104 L32.9089553,10.3645338 C32.8311155,10.2861761 32.8194917,10.190727 32.8194917,10.1407673 C32.8194917,10.0908077 32.8311155,9.99535854 32.9090859,9.91686935 L36.1215441,6.68290433 C36.195074,6.60849079 36.2815336,6.59284554 36.3410888,6.59284554 C36.4006441,6.59284554 36.4871037,6.60849079 36.5633763,6.68566525 L37.7628403,7.89324183 C38.1948772,8.32802199 38.8682697,8.40335584 39.3842847,8.07493708 C40.9712498,7.06496394 42.7005729,6.34252155 44.5236694,5.92798819 C45.1192221,5.79257132 45.5419861,5.25997549 45.5419861,4.64560365 L45.5419861,2.942638 C45.5419861,2.77040879 45.6864338,2.625 45.8575246,2.625 L50.396263,2.625 C50.5673537,2.625 50.7118014,2.77040879 50.7118014,2.942638 L50.7118014,4.64586659 C50.7118014,5.26036991 51.1345654,5.79283427 51.7299875,5.92825113 C53.5547819,6.34317892 55.2821459,7.06522688 56.8644092,8.07454266 C57.3806855,8.40375026 58.0546004,8.32881083 58.4870291,7.89363625 L59.6892358,6.68329874 C59.7627657,6.60888521 59.8493559,6.59323996 59.9087806,6.59323996 C59.9683358,6.59323996 60.0547954,6.60888521 60.1315904,6.68658556 L63.3447016,9.91726377 C63.4225414,9.99562149 63.4341652,10.0910707 63.4341652,10.1410303 C63.4341652,10.1909899 63.4225414,10.2864391 63.344571,10.3649283 L62.145107,11.5725048 C61.7133313,12.0071535 61.6383648,12.6850267 61.9646128,13.2046067 C62.9637308,14.7958206 63.6802225,16.5353356 64.0938442,18.3751643 C64.2284966,18.9742854 64.7574414,19.3995995 65.3676217,19.3995995 L67.0594616,19.3995995 C67.2305524,19.3995995 67.375,19.5450083 67.375,19.7172375 L67.375,24.2899888 L67.375,24.2899888 Z" id="Shape" fill="url(#linearGradient-1)"></path>
                <path d="M55.433599,49.8978194 L44.6732765,54.7600423 C43.7611206,53.9288217 42.483018,53.4102927 41.0692441,53.4102927 L33.6966389,53.4102927 C33.2837968,53.4102927 33.1829582,53.3814326 33.1761814,53.3794052 C33.1164101,53.3517376 32.9274732,53.1955111 32.7758087,53.0700528 L32.7085829,53.0144791 C26.7439235,48.0740238 21.7053803,48.3870731 15.9756044,50.3767551 C15.0485396,50.6987487 15.0306489,50.6994643 14.0996535,50.7344066 L12.4325632,50.7354799 C11.9576457,49.4748152 10.6060828,48.5625 9.01611232,48.5625 L3.59522256,48.5625 C1.61274045,48.5625 1.98951966e-13,49.9832074 1.98951966e-13,51.7293668 L1.98951966e-13,64.2476437 C1.98951966e-13,65.9918951 1.61274045,67.4110521 3.59522256,67.4110521 L9.01611232,67.4110521 C10.6059472,67.4110521 11.9573747,66.4998102 12.4324276,65.2406959 L15.4819831,65.2406959 C15.7512927,65.2406959 15.7512927,65.2406959 16.0645159,65.3183321 C16.178366,65.346596 16.3168836,65.380942 16.4957908,65.4232782 L30.5229327,68.7252631 C31.141247,68.8721876 31.7083287,69.0168462 32.2568421,69.1566152 C34.0540468,69.6148002 35.5647288,70 37.1392481,70 C38.9188332,70 40.7796041,69.5079461 43.226974,68.0728086 C43.2387656,68.0658917 43.2505572,68.0587363 43.2622133,68.0514616 L45.9401296,66.3712512 C46.5496341,65.9887944 46.6914045,65.2441543 46.2567412,64.7078561 C45.8220779,64.1714386 44.9755213,64.0468151 44.3664235,64.429272 L41.7062624,66.0982722 C38.1546823,68.1768006 36.6465755,67.7925549 33.0112344,66.8656903 C32.4512004,66.7229398 31.8721915,66.5752998 31.2269056,66.4219354 L17.1986795,63.1198313 C17.0344101,63.0809535 16.9055155,63.0489927 16.7997976,63.0227562 C16.2880145,62.8958668 16.0966379,62.8557965 15.4821186,62.8557965 L12.6152654,62.8557965 L12.6152654,53.1215718 L14.0800008,53.1215718 C14.0995179,53.1215718 14.118764,53.121214 14.1382812,53.1204985 L14.2155366,53.1176363 C15.3517332,53.0749424 15.6695646,53.0476325 16.9709793,52.5955296 C22.003288,50.8481776 25.8877439,50.6405514 30.8524202,54.7528869 L30.9195104,54.8083413 C31.7679645,55.5099296 32.256571,55.7956691 33.6967744,55.7956691 L41.0693797,55.7956691 C41.9346402,55.7956691 42.689168,56.2183156 43.0824929,56.8409558 C43.0866945,56.8478727 43.0915738,56.8544318 43.0959109,56.8613487 C43.2715653,57.1472075 43.3715907,57.4742099 43.3715907,57.821486 C43.3715907,58.9366572 42.3389435,59.8438444 41.0695152,59.8438444 L29.1210859,59.8438444 C28.3726572,59.8438444 27.7657279,60.3777575 27.7657279,61.0364133 C27.7657279,61.6950692 28.3726572,62.2289823 29.1210859,62.2289823 L41.0695152,62.2289823 C43.8336322,62.2289823 46.0823067,60.2518222 46.0823067,57.821486 C46.0823067,57.4911444 46.0394774,57.1696278 45.9608666,56.8599177 L56.6719896,52.0198766 C57.6857974,51.5619301 59.0720575,51.611064 59.7603083,52.5937408 C60.3691351,53.4599036 60.0342261,54.6112097 58.9817906,55.2714158 L54.2831712,58.2158685 C53.6733956,58.5979676 53.531083,59.3426077 53.9653397,59.8791444 C54.2297701,60.2057891 54.6469492,60.3800234 55.0704986,60.3800234 C55.342519,60.3800234 55.6171145,60.3081115 55.8555219,60.1588019 L60.5546836,57.2139914 C62.786416,55.8140347 63.4359036,53.2884122 62.0667209,51.3408279 C60.7203083,49.4181682 57.8689062,48.7977939 55.433599,49.8978194 L55.433599,49.8978194 Z M9.953125,64.6020678 C9.953125,65.0380464 9.56351829,65.40625 9.10224784,65.40625 L3.90974204,65.40625 C3.45041897,65.40625 3.0625,65.0379232 3.0625,64.6020678 L3.0625,51.6671308 C3.0625,51.2217869 3.44262944,50.859375 3.90974204,50.859375 L9.10224784,50.859375 C9.56351829,50.859375 9.953125,51.2291805 9.953125,51.6671308 L9.953125,64.6020678 Z" id="Shape" fill="url(#linearGradient-2)"></path>
            </g>
        </g>
    </g>
</svg>