<?xml version="1.0" encoding="UTF-8"?>
<svg width="93px" height="80px" viewBox="0 0 93 80" version="1.1" xmlns="http://www.w3.org/2000/svg" xmlns:xlink="http://www.w3.org/1999/xlink">
    <title>Group</title>
    <defs>
        <linearGradient x1="-9.76010049%" y1="49.9919722%" x2="140.063859%" y2="49.9919722%" id="linearGradient-1">
            <stop stop-color="#FF0051" offset="0%"></stop>
            <stop stop-color="#FF411F" offset="100%"></stop>
        </linearGradient>
        <linearGradient x1="-426.036076%" y1="49.9030864%" x2="86.9835443%" y2="49.9030864%" id="linearGradient-2">
            <stop stop-color="#FF0051" offset="0%"></stop>
            <stop stop-color="#FF411F" offset="100%"></stop>
        </linearGradient>
    </defs>
    <g id="Main.Landing" stroke="none" stroke-width="1" fill="none" fill-rule="evenodd">
        <g id="Home-Landing-Final" transform="translate(-1085.000000, -2878.000000)" fill-rule="nonzero">
            <g id="Group-23" transform="translate(-46.000000, -632.000000)">
                <g id="Group" transform="translate(1131.000000, 3510.000000)">
                    <path d="M60.0985222,55.0935961 C58.8768473,52.8078818 57.6945813,50.5221675 56.4729064,48.2364532 L46.7783251,29.7142857 C47.2512315,29.91133 47.7241379,30.1477833 48.1970443,30.3448276 C49.7339901,31.0541872 51.3497537,31.7635468 53.0049261,32.2758621 C55.2906404,32.9458128 57.3399015,32.9064039 58.9950739,32.0788177 C61.1625616,31.0147783 62.4236453,28.4926108 61.9901478,26.1674877 C61.6748768,24.3152709 60.4137931,22.8965517 59.5073892,21.9507389 C56.591133,18.9950739 53.044335,16.9064039 49.6157635,14.8571429 C48.5123153,14.1871921 47.2512315,13.4384236 46.0689655,12.6896552 L26.3251232,0.078817734 L2.24630542,13.2807882 L8.15763547,28.9261084 C9.57635468,32.7881773 11.546798,37.7931034 13.91133,42.5221675 C15.2512315,45.2019704 17.6157635,48.6699507 21.2019704,49.9310345 C24.6305419,51.1527094 28.4926108,50.1674877 31.9211823,49.3004926 C32.9852217,49.0246305 33.9704433,48.7881773 34.9162562,48.591133 L42.4827586,47.2118227 C42.6009852,47.4876847 42.7980296,47.8423645 43.0344828,48.3152709 C43.1133005,48.4729064 43.1921182,48.591133 43.1921182,48.6305419 L46.1477833,54.2660099 C46.8571429,55.6059113 47.5270936,56.9852217 48.1970443,58.364532 C49.5763547,61.2413793 51.0344828,64.2364532 52.8078818,66.8768473 C53.1625616,67.4285714 53.5960591,67.9802956 54.0689655,68.4926108 L18.7980296,68.4926108 C18.08867,63.8817734 14.1871921,60.4137931 9.57635468,60.4137931 C4.4137931,60.4137931 0.236453202,64.7093596 0.236453202,69.9901478 C0.236453202,75.270936 4.33497537,79.6059113 9.45812808,79.6059113 C14.0689655,79.6059113 17.9704433,76.1773399 18.679803,71.5270936 L59.270936,71.5270936 L59.3891626,71.5270936 L59.9014778,71.5270936 L59.9014778,71.4876847 C60.5714286,71.408867 61.2019704,71.1724138 61.7536946,70.817734 C63.2118227,69.91133 64.1182266,68.0985222 64.1970443,65.9704433 C64.2364532,63.9605911 63.6453202,61.8719212 62.3448276,59.3891626 C61.5960591,57.9704433 60.8472906,56.5517241 60.0985222,55.0935961 Z M26.1674877,3.50738916 L44.453202,15.1724138 C45.635468,15.9211823 46.8965517,16.6699507 48.0788177,17.3793103 C51.3497537,19.3103448 54.7389163,21.320197 57.3793103,24 C58.0098522,24.6305419 58.8768473,25.6157635 59.0738916,26.6403941 C59.270936,27.8226601 58.5221675,28.8866995 57.6551724,29.320197 C56.4334975,29.91133 54.8965517,29.6748768 53.7931034,29.3596059 C52.3349754,28.9261084 50.8768473,28.2561576 49.3399015,27.5862069 C48.0788177,27.0344828 46.7783251,26.4433498 45.4384236,25.9704433 C45.2413793,25.8916256 44.9261084,25.773399 44.6502463,25.6551724 L40.3152709,23.8423645 L53.8325123,49.6551724 C55.0541872,51.9408867 56.2364532,54.226601 57.4581281,56.5123153 L57.6551724,56.8669951 C58.364532,58.1674877 59.0344828,59.5073892 59.7438424,60.8078818 C60.8078818,62.817734 61.2807882,64.4334975 61.2413793,65.8916256 C61.2019704,66.7192118 60.9655172,67.8226601 60.2561576,68.2561576 C58.4827586,69.320197 56.1182266,66.7192118 55.0935961,65.2216749 C53.4384236,62.7389163 52.0591133,59.8226601 50.679803,57.0246305 C50.0098522,55.6453202 49.3399015,54.226601 48.591133,52.8472906 L45.635468,47.2118227 L45.5172414,46.9753695 C44.4137931,44.729064 44.0985222,44.0591133 43.1921182,44.0591133 C43.0738916,44.0591133 42.955665,44.0591133 42.8374384,44.0985222 L34.2857143,45.6748768 C33.2610837,45.8719212 32.2364532,46.1083744 31.0935961,46.4236453 C28.0985222,47.1724138 24.6699507,48.0394089 22.0295567,47.1330049 C19.3497537,46.1871921 17.4975369,43.3891626 16.3940887,41.182266 C14.1083744,36.6108374 12.1773399,31.6847291 10.7586207,27.9014778 L5.79310345,14.6995074 L26.1674877,3.50738916 Z M15.8817734,70.0689655 C15.8817734,73.6945813 13.0049261,76.6502463 9.49753695,76.6502463 C5.95073892,76.6502463 3.11330049,73.6945813 3.11330049,70.0689655 C3.11330049,66.4433498 5.99014778,63.4876847 9.49753695,63.4876847 C13.0049261,63.4876847 15.8817734,66.4433498 15.8817734,70.0689655 Z" id="Shape" fill="url(#linearGradient-1)"></path>
                    <path d="M82.9162562,60.4926108 C77.7536946,60.4926108 73.5763547,64.7881773 73.5763547,70.0689655 C73.5763547,75.3497537 77.7536946,79.6453202 82.9162562,79.6453202 C88.0788177,79.6453202 92.2561576,75.3497537 92.2561576,70.0689655 C92.2561576,64.7881773 88.0394089,60.4926108 82.9162562,60.4926108 Z M89.3004926,70.0689655 C89.3004926,73.6945813 86.4236453,76.6502463 82.9162562,76.6502463 C79.3694581,76.6502463 76.5320197,73.6945813 76.5320197,70.0689655 C76.5320197,66.4433498 79.408867,63.4876847 82.9162562,63.4876847 C86.4236453,63.4876847 89.3004926,66.4433498 89.3004926,70.0689655 Z" id="Shape" fill="url(#linearGradient-2)"></path>
                </g>
            </g>
        </g>
    </g>
</svg>