<?xml version="1.0" encoding="UTF-8"?>
<svg width="20px" height="15px" viewBox="0 0 20 15" version="1.1" xmlns="http://www.w3.org/2000/svg" xmlns:xlink="http://www.w3.org/1999/xlink">
    <title>Shape</title>
    <g id="Main.Landing" stroke="none" stroke-width="1" fill="none" fill-rule="evenodd">
        <g id="Home-Landing-Final" transform="translate(-1276.000000, -5100.000000)" fill="#FFFFFF">
            <g id="Group-23" transform="translate(-46.000000, -632.000000)">
                <g id="Group-22" transform="translate(46.000000, 5391.000000)">
                    <g id="Group-9" transform="translate(1000.000000, 328.000000)">
                        <g id="Group-3-Copy-2" transform="translate(266.000000, 0.500000)">
                            <g id="Group-31" transform="translate(0.000000, -0.000000)">
                                <path d="M29.2803347,12.8563598 L10.7141004,12.8563598 C10.3197071,12.8563598 10,13.1760669 10,13.5704184 L10,26.4239749 C10,26.8183682 10.3197071,27.1380753 10.7141004,27.1380753 L29.2803347,27.1380753 C29.674728,27.1380753 29.9944351,26.8183682 29.9944351,26.4239749 L29.9944351,13.5704184 C29.9944351,13.1760669 29.674728,12.8563598 29.2803347,12.8563598 Z M28.1092469,14.2845188 L19.9971967,20.5242259 L11.8851883,14.2845188 L28.1092469,14.2845188 Z M28.5662343,25.7099163 L11.428159,25.7099163 L11.428159,15.7348117 L19.5623431,21.9916318 C19.8188285,22.1885774 20.1756067,22.1885774 20.4320921,21.9916318 L28.5662343,15.7348117 L28.5662343,25.7099163 Z" id="Shape"></path>
                            </g>
                        </g>
                    </g>
                </g>
            </g>
        </g>
    </g>
</svg>