<?xml version="1.0" encoding="UTF-8"?>
<svg width="70px" height="80px" viewBox="0 0 70 80" version="1.1" xmlns="http://www.w3.org/2000/svg" xmlns:xlink="http://www.w3.org/1999/xlink">
    <title>Group</title>
    <defs>
        <linearGradient x1="-9.53417722%" y1="49.9921747%" x2="181.514216%" y2="49.9921747%" id="linearGradient-1">
            <stop stop-color="#FF0051" offset="0%"></stop>
            <stop stop-color="#FF411F" offset="100%"></stop>
        </linearGradient>
        <linearGradient x1="-315.886942%" y1="50.0069903%" x2="119.934825%" y2="50.0069903%" id="linearGradient-2">
            <stop stop-color="#FF0051" offset="0%"></stop>
            <stop stop-color="#FF411F" offset="100%"></stop>
        </linearGradient>
    </defs>
    <g id="Main.Landing" stroke="none" stroke-width="1" fill="none" fill-rule="evenodd">
        <g id="Home-Landing-Final" transform="translate(-685.000000, -2878.000000)" fill-rule="nonzero">
            <g id="Group-23" transform="translate(-46.000000, -632.000000)">
                <g id="Group" transform="translate(731.000000, 3510.000000)">
                    <path d="M40.1165049,17.1262136 C40.1165049,17.1262136 40.1165049,17.1262136 40.1165049,17.1262136 C40.0776699,16.9708738 40.038835,16.8932039 40,16.815534 C40,16.776699 39.961165,16.776699 39.961165,16.7378641 C39.9223301,16.6601942 39.8834951,16.5825243 39.8058252,16.5436893 C39.7669903,16.5048544 39.7669903,16.5048544 39.7281553,16.4660194 C39.6504854,16.3883495 39.5728155,16.3106796 39.4563107,16.2718447 C39.4563107,16.2718447 39.4563107,16.2718447 39.4563107,16.2718447 C39.4563107,16.2718447 39.4563107,16.2718447 39.4563107,16.2718447 L20.8543689,5.94174757 C20.4271845,5.70873786 19.961165,5.70873786 19.5339806,5.94174757 L0.932038835,16.2718447 C0.932038835,16.2718447 0.932038835,16.2718447 0.932038835,16.2718447 C0.893203883,16.2718447 0.893203883,16.3106796 0.893203883,16.3106796 C0.815533981,16.3495146 0.737864078,16.4271845 0.699029126,16.4660194 C0.660194175,16.5048544 0.660194175,16.5048544 0.621359223,16.5436893 C0.582524272,16.6213592 0.504854369,16.6601942 0.466019417,16.7378641 C0.466019417,16.776699 0.427184466,16.776699 0.427184466,16.815534 C0.388349515,16.8932039 0.349514563,17.0097087 0.310679612,17.1262136 C0.310679612,17.1262136 0.310679612,17.1650485 0.310679612,17.1650485 C0.27184466,17.2427184 0.27184466,17.3592233 0.27184466,17.4368932 C0.27184466,17.4368932 0.27184466,17.4757282 0.27184466,17.4757282 L0.27184466,63.1067961 C0.27184466,63.6116505 0.54368932,64.0776699 1.00970874,64.3106796 L20.2330097,74.0194175 L20.4271845,74.0970874 C20.6213592,74.1747573 20.815534,74.2524272 21.0097087,74.2524272 C21.0485437,74.2524272 21.0873786,74.2524272 21.1262136,74.2524272 C21.1650485,74.2524272 21.2038835,74.2524272 21.2815534,74.2524272 C21.3592233,74.2524272 21.4368932,74.2135922 21.5145631,74.1747573 C21.5145631,74.1747573 21.5145631,74.1747573 21.5145631,74.1747573 C21.5533981,74.1359223 21.631068,74.1359223 21.6699029,74.0970874 L39.4563107,64.3106796 C39.8834951,64.0776699 40.1553398,63.6116505 40.1553398,63.1067961 L40.1553398,17.4757282 C40.1553398,17.4757282 40.1553398,17.4368932 40.1553398,17.4368932 C40.1553398,17.3203883 40.1553398,17.2427184 40.1165049,17.1262136 Z M19.6504854,70.6407767 L2.99029126,62.2524272 L2.99029126,19.7669903 L19.6504854,29.0485437 L19.6504854,70.6407767 Z M20.9708738,26.6796117 L4.42718447,17.4757282 L20.1941748,8.69902913 L36.0776699,17.5145631 L20.9708738,26.6796117 Z M37.4368932,62.2912621 L22.368932,70.6019417 L22.368932,29.0485437 L37.4368932,19.8834951 L37.4368932,62.2912621 Z" id="Shape" fill="url(#linearGradient-1)"></path>
                    <path d="M68.6601942,68.5436893 C68.0776699,68.0776699 67.223301,68.1553398 66.7572816,68.7378641 L61.8252427,74.7572816 L61.8252427,38.6407767 L64.3106796,38.6407767 C66.6796117,38.6407767 68.6213592,36.6990291 68.6213592,34.3300971 L68.6213592,26.7184466 C68.6213592,24.3495146 66.6796117,22.407767 64.3106796,22.407767 L61.8252427,22.407767 L61.8252427,5.2038835 L66.7184466,11.2621359 C66.9902913,11.6116505 67.3786408,11.7669903 67.7669903,11.7669903 C68.0776699,11.7669903 68.3883495,11.6504854 68.6213592,11.4563107 C69.2038835,10.9902913 69.2815534,10.1359223 68.815534,9.55339806 L61.5145631,0.504854369 C61.2427184,0.194174757 60.8543689,0 60.4660194,0 C60.4660194,0 60.4660194,0 60.4660194,0 C60.038835,0 59.6893204,0.194174757 59.4174757,0.504854369 L52,9.55339806 C51.5339806,10.1359223 51.6116505,10.9902913 52.1941748,11.4563107 C52.776699,11.9223301 53.631068,11.8446602 54.0970874,11.2621359 L59.0679612,5.16504854 L59.0679612,22.368932 L56.5825243,22.368932 C54.2135922,22.368932 52.2718447,24.3106796 52.2718447,26.6796117 L52.2718447,34.2912621 C52.2718447,36.6601942 54.2135922,38.6019417 56.5825243,38.6019417 L59.0679612,38.6019417 L59.0679612,74.7961165 L54.1747573,68.7378641 C53.7087379,68.1553398 52.8543689,68.0776699 52.2718447,68.5436893 C51.6893204,69.0097087 51.6116505,69.8640777 52.0776699,70.4466019 L59.3786408,79.4951456 C59.6504854,79.8058252 60.038835,80 60.4271845,80 C60.4271845,80 60.4271845,80 60.4271845,80 C60.8543689,80 61.2038835,79.8058252 61.4757282,79.4951456 L68.8932039,70.4466019 C69.3592233,69.8640777 69.2427184,69.0097087 68.6601942,68.5436893 Z M55.0291262,34.3300971 L55.0291262,26.7184466 C55.0291262,25.8252427 55.7281553,25.1262136 56.6213592,25.1262136 L59.1067961,25.1262136 L61.8252427,25.1262136 L64.3106796,25.1262136 C65.2038835,25.1262136 65.9029126,25.8252427 65.9029126,26.7184466 L65.9029126,34.3300971 C65.9029126,35.223301 65.2038835,35.9223301 64.3106796,35.9223301 L61.8252427,35.9223301 L59.1067961,35.9223301 L56.6213592,35.9223301 C55.7669903,35.9223301 55.0291262,35.223301 55.0291262,34.3300971 Z" id="Shape" fill="url(#linearGradient-2)"></path>
                </g>
            </g>
        </g>
    </g>
</svg>