<?xml version="1.0" encoding="UTF-8"?>
<svg width="16px" height="17px" viewBox="0 0 16 17" version="1.1" xmlns="http://www.w3.org/2000/svg" xmlns:xlink="http://www.w3.org/1999/xlink">
    <title>9B0FA8F7-0334-4814-848E-ED1ED9702633</title>
    <g id="Main.Landing" stroke="none" stroke-width="1" fill="none" fill-rule="evenodd">
        <g id="Home-Landing-Final" transform="translate(-1000.000000, -5276.000000)" fill="#FFFFFF">
            <g id="icons/size" transform="translate(1000.000000, 5276.000000)">
                <g id="1620728" transform="translate(8.000000, 8.024961) scale(-1, 1) translate(-8.000000, -8.024961) translate(0.000000, 0.024961)">
                    <path d="M1.8900156,15.975039 C1.4223869,15.975039 0.967141192,15.800507 0.619637292,15.4835218 C0.231084231,15.1291927 0.00828782527,14.62422 0.00828782527,14.0984789 L0.00828782527,11.5790757 C0.00828782527,10.6229524 0.721821379,9.82147035 1.66799923,9.7148986 C2.22484398,9.65210608 2.7778861,9.5374415 3.31201248,9.37412246 C3.98049922,9.16965679 4.70056552,9.34711388 5.19091265,9.83736349 L6.21177847,10.8581318 C8.16682918,9.78851405 9.79709439,8.15824884 10.8666147,6.20358814 L9.84565132,5.1827223 C9.35540171,4.69237519 9.17794461,3.97230889 9.38250781,3.30372466 C9.54582685,2.76959828 9.66049143,2.21655616 9.72328392,1.6598089 C9.8297582,0.713533554 10.6312402,7.09434245e-16 11.5873635,7.09434245e-16 L14.1066693,7.09434245e-16 C14.6325078,7.09434245e-16 15.1374805,0.222796406 15.4918097,0.611349466 C15.8476989,1.00136507 16.0238884,1.52720359 15.975429,2.05382215 C15.8090874,3.86154446 15.3299532,5.60696177 14.5512871,7.24171217 C13.7943643,8.83102575 12.7772036,10.2701833 11.5278861,11.5195008 C10.2786661,12.7687207 8.83941107,13.7860765 7.2500975,14.5429017 C5.61524962,15.3214704 3.86983229,15.800702 2.06210998,15.9671412 C2.00468019,15.9725039 1.94734789,15.975039 1.8900156,15.975039 Z M3.86749219,10.5389041 C3.80430967,10.5389041 3.74005461,10.5483619 3.67716458,10.5675702 C3.06971529,10.7534126 2.44081513,10.8837754 1.80772231,10.9551482 C1.49346723,10.9905421 1.25633775,11.2587754 1.25633775,11.5790757 L1.25633775,14.0984789 C1.25633775,14.2769111 1.32897817,14.4413027 1.46080344,14.5614275 C1.59409126,14.6832098 1.76706319,14.7410296 1.94764041,14.724259 C8.73127925,14.0999415 14.1082293,8.72289393 14.7326443,1.93935256 C14.7493175,1.75877536 14.6914002,1.58580343 14.5698128,1.4524181 C14.449493,1.32069032 14.2851014,1.24804992 14.1066693,1.24804992 L11.5873635,1.24804992 C11.2670632,1.24804992 10.99883,1.48508191 10.9633385,1.79943448 C10.8920632,2.4325273 10.7617005,3.06142747 10.5759555,3.66887676 C10.5067278,3.8950858 10.5649376,4.13699297 10.7281591,4.30021451 L12.3903081,5.96236351 L12.1904251,6.36417707 C10.9441303,8.86914975 8.8777301,10.9352574 6.37226988,12.1818448 L5.97045631,12.3819228 L4.30840484,10.7197738 C4.19071763,10.6020866 4.03198128,10.5389041 3.86749219,10.5389041 L3.86749219,10.5389041 Z" id="Shape"></path>
                </g>
            </g>
        </g>
    </g>
</svg>