<?xml version="1.0" encoding="UTF-8"?>
<svg width="16px" height="14px" viewBox="0 0 16 14" version="1.1" xmlns="http://www.w3.org/2000/svg" xmlns:xlink="http://www.w3.org/1999/xlink">
    <title>B29EA832-B4D0-4375-81D3-ECF0779819FB</title>
    <g id="Main.Landing" stroke="none" stroke-width="1" fill="none" fill-rule="evenodd">
        <g id="Home-Landing-Final" transform="translate(-1000.000000, -5340.000000)" fill="#FFFFFF">
            <g id="icons/size" transform="translate(1000.000000, 5340.500000)">
                <g id="860809" transform="translate(0.000000, 0.276151)">
                    <path d="M15.4242678,0.00893723849 L0.571280335,0.00893723849 C0.25576569,0.00893723849 0,0.264702929 0,0.5801841 L0,10.8630293 C0,11.1785439 0.25576569,11.4343096 0.571280335,11.4343096 L15.4242678,11.4343096 C15.7397824,11.4343096 15.9955481,11.1785439 15.9955481,10.8630293 L15.9955481,0.5801841 C15.9955481,0.264702929 15.7397824,0.00893723849 15.4242678,0.00893723849 Z M14.4873975,1.15146444 L7.99775732,6.14323013 L1.50815063,1.15146444 L14.4873975,1.15146444 Z M14.8529874,10.2917824 L1.1425272,10.2917824 L1.1425272,2.31169874 L7.64987448,7.31715481 C7.85506276,7.4747113 8.14048536,7.4747113 8.34567364,7.31715481 L14.8529874,2.31169874 L14.8529874,10.2917824 Z" id="Shape"></path>
                </g>
            </g>
        </g>
    </g>
</svg>