<?xml version="1.0" encoding="UTF-8"?>
<svg width="85px" height="80px" viewBox="0 0 85 80" version="1.1" xmlns="http://www.w3.org/2000/svg" xmlns:xlink="http://www.w3.org/1999/xlink">
    <title>Group</title>
    <defs>
        <linearGradient x1="-1.75784632%" y1="49.9772046%" x2="105.434957%" y2="49.9772046%" id="linearGradient-1">
            <stop stop-color="#FF0051" offset="0%"></stop>
            <stop stop-color="#FF411F" offset="100%"></stop>
        </linearGradient>
        <linearGradient x1="-252.701087%" y1="50.7511111%" x2="1900.47609%" y2="50.7511111%" id="linearGradient-2">
            <stop stop-color="#FF0051" offset="0%"></stop>
            <stop stop-color="#FF411F" offset="100%"></stop>
        </linearGradient>
        <linearGradient x1="-457.048913%" y1="50.7511111%" x2="1696.12826%" y2="50.7511111%" id="linearGradient-3">
            <stop stop-color="#FF0051" offset="0%"></stop>
            <stop stop-color="#FF411F" offset="100%"></stop>
        </linearGradient>
        <linearGradient x1="-662.483696%" y1="50.7511111%" x2="1490.69348%" y2="50.7511111%" id="linearGradient-4">
            <stop stop-color="#FF0051" offset="0%"></stop>
            <stop stop-color="#FF411F" offset="100%"></stop>
        </linearGradient>
        <linearGradient x1="-48.3442124%" y1="49.992569%" x2="90.7527357%" y2="49.992569%" id="linearGradient-5">
            <stop stop-color="#FF0051" offset="0%"></stop>
            <stop stop-color="#FF411F" offset="100%"></stop>
        </linearGradient>
    </defs>
    <g id="Main.Landing" stroke="none" stroke-width="1" fill="none" fill-rule="evenodd">
        <g id="Home-Landing-Final" transform="translate(-261.000000, -2878.000000)" fill-rule="nonzero">
            <g id="Group-23" transform="translate(-46.000000, -632.000000)">
                <g id="Group" transform="translate(307.000000, 3510.000000)">
                    <path d="M2.94949495,59.8787879 L2.94949495,15.0707071 L71.7171717,15.0707071 L71.7171717,31.5151515 L74.6666667,31.5151515 L74.6666667,7.47474747 C74.6666667,3.35353535 71.4343434,0 67.4343434,0 L7.23232323,0 C3.23232323,0 0,3.35353535 0,7.47474747 L0,59.8787879 C0,64 3.23232323,67.3535354 7.23232323,67.3535354 L26.2626263,67.3535354 L26.2626263,64.4040404 L7.23232323,64.4040404 C4.84848485,64.4040404 2.94949495,62.3838384 2.94949495,59.8787879 Z M71.6767677,12.1212121 L2.94949495,12.1212121 L2.94949495,7.47474747 C2.94949495,4.96969697 4.88888889,2.94949495 7.23232323,2.94949495 L67.3939394,2.94949495 C69.7777778,2.94949495 71.6767677,4.96969697 71.6767677,7.47474747 L71.6767677,12.1212121 Z" id="Shape" fill="url(#linearGradient-1)"></path>
                    <path d="M9.93939394,5.73737374 C8.92929293,5.73737374 8.08080808,6.54545455 8.08080808,7.55555556 C8.08080808,8.56565657 8.92929293,9.37373737 9.93939394,9.37373737 C10.9494949,9.37373737 11.7979798,8.56565657 11.7979798,7.55555556 C11.7979798,6.54545455 10.9494949,5.73737374 9.93939394,5.73737374 Z" id="Path" fill="url(#linearGradient-2)"></path>
                    <path d="M17.5353535,5.73737374 C16.5252525,5.73737374 15.6767677,6.54545455 15.6767677,7.55555556 C15.6767677,8.56565657 16.5252525,9.37373737 17.5353535,9.37373737 C18.5454545,9.37373737 19.3939394,8.56565657 19.3939394,7.55555556 C19.3939394,6.54545455 18.5858586,5.73737374 17.5353535,5.73737374 Z" id="Path" fill="url(#linearGradient-3)"></path>
                    <path d="M25.1717172,5.73737374 C24.1616162,5.73737374 23.3131313,6.54545455 23.3131313,7.55555556 C23.3131313,8.56565657 24.1616162,9.37373737 25.1717172,9.37373737 C26.1818182,9.37373737 27.030303,8.56565657 27.030303,7.55555556 C27.030303,6.54545455 26.2222222,5.73737374 25.1717172,5.73737374 Z" id="Path" fill="url(#linearGradient-4)"></path>
                    <path d="M83.5555556,73.0505051 C83.0707071,72 82.3030303,70.989899 81.1313131,69.8585859 C77.4141414,66.3434343 73.3333333,63.030303 69.3737374,59.8383838 L69.2929293,59.7575758 C68.1212121,58.7878788 66.9494949,57.8181818 65.7777778,56.8484848 C68.4848485,53.1717172 69.979798,48.7676768 69.979798,44.1212121 C69.979798,38.3434343 67.7171717,32.9292929 63.5959596,28.8888889 C55.1111111,20.4848485 41.3333333,20.4848485 32.8484848,28.8888889 C28.7676768,32.969697 26.5050505,38.3838384 26.5050505,44.1616162 C26.5050505,49.9393939 28.7676768,55.3535354 32.8888889,59.3939394 C36.969697,63.4747475 42.4646465,65.6969697 48.2424242,65.6969697 C52.9292929,65.6969697 57.3737374,64.2020202 61.0909091,61.5353535 C62.020202,62.6666667 62.9494949,63.7575758 63.9191919,64.8888889 L64.1212121,65.1313131 C67.3535354,69.0505051 70.6666667,73.0505051 74.2222222,76.7676768 C75.3535354,77.9393939 76.3636364,78.7070707 77.4141414,79.1919192 C78.1010101,79.5151515 78.8282828,79.6767677 79.5555556,79.6767677 C80.6060606,79.6767677 81.5757576,79.3131313 82.3838384,78.6666667 L82.4242424,78.7070707 L82.6666667,78.4646465 C82.7070707,78.4242424 82.7474747,78.3838384 82.7474747,78.3434343 C82.7878788,78.3030303 82.7878788,78.3030303 82.8282828,78.2626263 L83.0707071,78.020202 L83.030303,77.979798 C84.1616162,76.6060606 84.3636364,74.7878788 83.5555556,73.0505051 Z M80.6464646,76.2424242 C80.0808081,76.7676768 79.3939394,76.8484848 78.5858586,76.4848485 C77.8989899,76.1616162 77.1717172,75.5959596 76.2828283,74.7070707 C72.8080808,71.0707071 69.4949495,67.1111111 66.3030303,63.2323232 L66.2222222,63.1111111 C65.2525253,61.9393939 64.2828283,60.7676768 63.3131313,59.5959596 C63.3939394,59.5151515 63.5151515,59.4343434 63.5959596,59.3535354 C63.6767677,59.2727273 63.7575758,59.1515152 63.8787879,59.0707071 C65.0505051,60.040404 66.2222222,61.010101 67.3939394,61.9393939 L67.5555556,62.0606061 C71.4343434,65.2121212 75.4747475,68.4848485 79.1111111,71.9191919 C80,72.7676768 80.5656566,73.4949495 80.8888889,74.1818182 C81.2525253,75.030303 81.1717172,75.6767677 80.6464646,76.2424242 Z M67.030303,44.1616162 C67.030303,49.1313131 65.0909091,53.8181818 61.5353535,57.3333333 C54.1818182,64.6060606 42.2626263,64.6060606 34.9494949,57.3333333 C31.3939394,53.8181818 29.4545455,49.1313131 29.4545455,44.1616162 C29.4545455,39.1919192 31.3939394,34.5050505 34.9494949,30.989899 C38.5050505,27.4747475 43.2323232,25.5353535 48.2424242,25.5353535 C53.2929293,25.5353535 57.979798,27.4747475 61.5353535,30.989899 C65.0909091,34.5050505 67.030303,39.1919192 67.030303,44.1616162 Z" id="Shape" fill="url(#linearGradient-5)"></path>
                </g>
            </g>
        </g>
    </g>
</svg>