<?xml version="1.0" encoding="UTF-8"?>
<svg width="59px" height="50px" viewBox="0 0 59 50" version="1.1" xmlns="http://www.w3.org/2000/svg" xmlns:xlink="http://www.w3.org/1999/xlink">
    <title>Group 14</title>
    <g id="Why-Lviv" stroke="none" stroke-width="1" fill="none" fill-rule="evenodd">
        <g id="Group-26-Copy" transform="translate(-14.000000, -24.000000)">
            <g id="Group-14" transform="translate(15.000000, 26.000000)">
                <path d="M12.0740073,6.94748538 C9.38980434,9.89811382 6.99588195,15.3647027 6.99588195,21.387698 C6.99588195,34.9806971 18.0692291,46 31.728895,46 C45.3885609,46 56.461908,34.9806971 56.461908,21.387698 C56.461908,12.2288611 51.4346753,4.23846672 43.9763657,0" id="Combined-Shape" stroke="#FF3A25" stroke-width="2.39624892"></path>
                <polyline id="Path-6" stroke="#FF3A25" stroke-width="2.39624892" points="-2.08023944e-16 10.6290866 12.7008225 5.93548387 15.0173186 19"></polyline>
                <path d="M32.5469734,32.7317353 L32.5469734,30.4893315 C33.9417331,30.3352144 35.0089941,30.0192743 35.7487561,29.5415113 C37.081869,28.6784556 37.7484255,27.222049 37.7484255,25.1722916 C37.7484255,23.7544142 37.2282803,22.6833004 36.1879899,21.95895 C35.5484039,21.5197163 34.3347317,21.0496591 32.5469734,20.5487786 L32.5469734,20.5487786 L32.5469734,14.9312103 C33.6103814,14.9697396 34.3848198,15.3781499 34.8702887,16.1564412 C35.1322877,16.5802633 35.2902578,17.0849968 35.3441987,17.6706417 L35.3441987,17.6706417 L37.3669857,17.6706417 C37.3284564,16.3606464 36.898855,15.3068707 36.0781814,14.5093147 C35.2575079,13.7117587 34.0804385,13.2590398 32.5469734,13.1511578 L32.5469734,13.1511578 L32.5469734,11.6369573 L31.4488891,11.6369573 L31.4488891,13.1742754 C29.9000122,13.1896871 28.6959724,13.6674501 27.8367695,14.6075644 C26.9775667,15.5476787 26.5479653,16.6033808 26.5479653,17.7746708 C26.5479653,19.0846661 26.9448168,20.1095448 27.7385199,20.8493069 C28.532223,21.589069 29.7613068,22.1169201 31.4257715,22.4328601 L31.4257715,22.4328601 L31.4257715,28.7323965 C30.1311879,28.6245146 29.2450145,28.1351928 28.7672515,27.2644312 C28.4975466,26.7789623 28.3318707,26.0083768 28.2702239,24.9526747 L28.2702239,24.9526747 L26.2243194,24.9526747 C26.2243194,26.2780817 26.4439363,27.3299309 26.88317,28.1082223 C27.6845789,29.5492172 29.2064853,30.3429202 31.4488891,30.4893315 L31.4488891,30.4893315 L31.4488891,32.7317353 L32.5469734,32.7317353 Z M31.4257715,20.3291617 C30.5704216,20.1596329 29.8903799,19.8591046 29.3856464,19.4275767 C28.8809129,18.9960488 28.6285461,18.398845 28.6285461,17.6359654 C28.6285461,17.0040853 28.8423836,16.3991757 29.2700586,15.8212365 C29.6977335,15.2432974 30.4163045,14.9350632 31.4257715,14.8965339 L31.4257715,14.8965339 L31.4257715,20.3291617 Z M32.5469734,28.7901905 L32.5469734,22.7102709 C33.5102053,22.97227 34.1960264,23.2496807 34.6044367,23.5425032 C35.3133753,24.0433838 35.6678447,24.77544 35.6678447,25.7386719 C35.6678447,26.3474344 35.5368451,26.8829914 35.274846,27.3453427 C34.7739655,28.2469277 33.8646746,28.7285436 32.5469734,28.7901905 L32.5469734,28.7901905 Z" id="$" fill="#FF3A25" fill-rule="nonzero"></path>
            </g>
        </g>
    </g>
</svg>