<?xml version="1.0" encoding="UTF-8"?>
<svg width="24px" height="24px" viewBox="0 0 24 24" version="1.1" xmlns="http://www.w3.org/2000/svg" xmlns:xlink="http://www.w3.org/1999/xlink">
    <title>Combined Shape</title>
    <g id="Main.Landing" stroke="none" stroke-width="1" fill="none" fill-rule="evenodd">
        <g id="Home-Landing-Final" transform="translate(-709.000000, -5103.000000)" fill="#FFFFFF" fill-rule="nonzero">
            <g id="Group-23" transform="translate(-46.000000, -632.000000)">
                <g id="Group-5" transform="translate(46.000000, 5391.000000)">
                    <path d="M732.410726,347.367227 C732.176183,346.731666 731.802003,346.156394 731.315803,345.684197 C730.843606,345.197997 730.268723,344.823817 729.632773,344.589274 C729.117012,344.38896 728.342204,344.150528 726.915109,344.085571 C725.371327,344.015169 724.908465,344 721.000194,344 C717.091535,344 716.628673,344.014781 715.085279,344.085182 C713.658185,344.150528 712.882988,344.38896 712.367616,344.589274 C711.731666,344.823817 711.156394,345.197997 710.684586,345.684197 C710.198386,346.156394 709.824206,346.731277 709.589274,347.367227 C709.38896,347.882988 709.150528,348.658185 709.085571,350.085279 C709.015169,351.628673 709,352.091535 709,356.000194 C709,359.908465 709.015169,360.371327 709.085571,361.915109 C709.150528,363.342204 709.38896,364.117012 709.589274,364.632773 C709.824206,365.268723 710.197997,365.843606 710.684197,366.315803 C711.156394,366.802003 711.731277,367.176183 712.367227,367.410726 C712.882988,367.611429 713.658185,367.849861 715.085279,367.914818 C716.628673,367.98522 717.091146,368 720.999806,368 C724.908854,368 725.371716,367.98522 726.914721,367.914818 C728.341815,367.849861 729.117012,367.611429 729.632773,367.410726 C730.90934,366.918302 731.918302,365.90934 732.410726,364.632773 C732.61104,364.117012 732.849472,363.342204 732.914818,361.915109 C732.985219,360.371327 733,359.908465 733,356.000194 C733,352.091535 732.985219,351.628673 732.914818,350.085279 C732.849861,348.658185 732.611429,347.882988 732.410726,347.367227 L732.410726,347.367227 Z M721.000194,363.516069 C716.848824,363.516069 713.483542,360.151176 713.483542,355.999806 C713.483542,351.848435 716.848824,348.483542 721.000194,348.483542 C725.151176,348.483542 728.516458,351.848435 728.516458,355.999806 C728.516458,360.151176 725.151176,363.516069 721.000194,363.516069 Z M728.813623,349.94292 C727.843557,349.94292 727.05708,349.156443 727.05708,348.186377 C727.05708,347.21631 727.843557,346.429833 728.813623,346.429833 C729.78369,346.429833 730.570167,347.21631 730.570167,348.186377 C730.569778,349.156443 729.78369,349.94292 728.813623,349.94292 Z" id="Combined-Shape"></path>
                </g>
            </g>
        </g>
    </g>
</svg>