<?xml version="1.0" encoding="UTF-8"?>
<svg width="70px" height="70px" viewBox="0 0 70 70" version="1.1" xmlns="http://www.w3.org/2000/svg" xmlns:xlink="http://www.w3.org/1999/xlink">
    <title>Group 32</title>
    <defs>
        <linearGradient x1="-9.53417722%" y1="49.9921747%" x2="181.514216%" y2="49.9921747%" id="linearGradient-1">
            <stop stop-color="#FF0051" offset="0%"></stop>
            <stop stop-color="#FF411F" offset="100%"></stop>
        </linearGradient>
    </defs>
    <g id="Why-Lviv" stroke="none" stroke-width="1" fill="none" fill-rule="evenodd">
        <g transform="translate(-164.000000, -1573.000000)" fill="url(#linearGradient-1)" fill-rule="nonzero" id="Group-6">
            <g transform="translate(164.000000, 1573.000000)" id="Group-32">
                <path d="M68.4517488,11.8617213 L35.7899967,0.137180166 C35.2742571,-0.0457267218 34.7117401,-0.0457267218 34.1960005,0.137180166 L1.5424167,11.8617213 C0.616917648,12.1969105 0,13.0792294 0,14.0676938 C0,15.0561582 0.616917648,15.938477 1.5424167,16.2736662 L17.4940477,21.9999321 L17.4940477,29.3101835 C17.4940477,33.8686851 33.2064626,34 34.9976662,34 C36.7888698,34 52.5012847,33.8686851 52.5012847,29.3101835 L52.5012847,21.9999321 L56.0020084,20.7512685 L56.0020084,23.4479129 C56.0020084,24.74297 57.0468933,25.7928212 58.3358242,25.7928212 L60.66964,25.7928212 C61.9585709,25.7928212 63.0034558,24.74297 63.0034558,23.4479129 L63.0034558,19.9305506 C62.9999739,19.3876245 62.8696737,18.8531034 62.6230439,18.3700142 L68.4575834,16.2736662 C69.3830824,15.938477 70,15.0561582 70,14.0676938 C70,13.0792294 69.3830824,12.1969105 68.4575834,11.8617213 L68.4517488,11.8617213 Z M50.1674689,26.7307845 C45.7227167,24.697749 36.3571139,24.6203671 34.9976662,24.6203671 C33.6382185,24.6203671 24.2726157,24.697749 19.8278635,26.7307845 L19.8278635,16.5163642 C20.5280082,15.6135745 26.0311459,14.06828 34.9976662,14.06828 C43.9641865,14.06828 49.4673242,15.6135745 50.1674689,16.5163642 L50.1674689,26.7307845 Z M34.9976662,31.6550918 C26.3625477,31.6550918 20.9399267,30.2223528 19.9258838,29.3101835 C20.9399267,28.3980142 26.3648816,26.9652753 34.9976662,26.9652753 C43.6304509,26.9652753 49.0554057,28.3980142 50.0694487,29.3101835 C49.0554057,30.2223528 43.6327847,31.6550918 34.9976662,31.6550918 Z M56.5492882,18.0604863 L52.5012847,19.510812 L52.5012847,16.4131882 C52.5012847,11.8546866 36.7888698,11.7233718 34.9976662,11.7233718 C33.2064626,11.7233718 17.4940477,11.8546866 17.4940477,16.4131882 L17.4940477,19.5096396 L2.324245,14.06828 L35.0140029,2.34373882 L58.3358242,10.7174061 L58.3358242,16.6289198 C57.5979717,16.8923728 56.9690726,17.396315 56.5492882,18.0604863 Z M60.66964,23.4479129 L58.3358242,23.4479129 L58.3358242,19.9305506 C58.3358242,19.2830221 58.8582667,18.7580965 59.5027321,18.7580965 C60.1471975,18.7580965 60.66964,19.2830221 60.66964,19.9305506 L60.66964,23.4479129 Z M60.66964,16.5820216 L60.66964,11.5557108 L67.6710874,14.06828 L60.66964,16.5820216 Z" id="Shape"></path>
                <path d="M66.5,36 C66.4299633,36 66.3600565,36.0060766 66.2911667,36.0187636 C55.9397151,37.6360234 45.4755804,38.4138872 35,38.3448295 C24.5244196,38.4138872 14.0602849,37.6360234 3.70883333,36.0187636 C3.6398301,36.0069343 3.56999702,36.0006615 3.5,36 C2.68333333,36 0,36.9297279 0,48.8965399 C0,60.8633519 2.68333333,61.7930749 3.5,61.7930749 C3.57005592,61.7915846 3.63988478,61.7845281 3.70883333,61.7719714 C11.662817,60.5058793 19.6914835,59.7703409 27.7421667,59.5701812 L25.4648333,65.0594154 C25.1149509,65.9383561 25.3276627,66.9426065 26.0034161,67.6021607 C26.6791695,68.261715 27.6842777,68.446091 28.5483333,68.0689977 L29.4408333,67.6856189 L29.827,68.5778246 C30.1917649,69.442937 31.0375442,70.0035584 31.9725,69.9999805 L32.0016667,69.9999805 C32.9436216,69.9925778 33.788074,69.4147999 34.1401667,68.5367902 L36.1666667,63.6619 L38.1861667,68.5180316 C38.5351503,69.4043005 39.3832544,69.9900986 40.3316667,69.9999805 L40.3666667,69.9999805 C41.2952909,70.0037906 42.1364827,69.450078 42.504,68.593066 L42.8936667,67.6938258 L43.7721667,68.072515 C44.6399658,68.4574764 45.6534612,68.2740872 46.3331353,67.6091149 C47.0128093,66.9441425 47.2223697,65.9309309 46.8626667,65.0488637 L44.6296667,59.6674914 C51.88821,59.9257597 59.1242001,60.6305263 66.297,61.7778335 C66.3640789,61.7889881 66.4320165,61.7940889 66.5,61.7930749 C67.3166667,61.7930749 70,60.8633519 70,48.8965399 C70,36.9297279 67.3166667,36 66.5,36 L66.5,36 Z M38.7333333,40.6544817 C39.2178295,42.44471 39.4999994,44.28411 39.5745,46.1378539 C36.9291799,44.9017439 33.8266394,45.191534 31.4533333,46.8964046 C31.393659,44.7910402 31.1251633,42.696907 30.6518333,40.6451024 C32.0650555,40.6748035 33.5144445,40.6896541 35,40.6896541 C36.2751667,40.6896541 37.513,40.6755851 38.7333333,40.6544817 L38.7333333,40.6544817 Z M36.1666667,59.4482503 C32.9450057,59.4482503 30.3333333,56.823716 30.3333333,53.586189 C30.3333333,50.348662 32.9450057,47.7241277 36.1666667,47.7241277 C39.3883277,47.7241277 42,50.348662 42,53.586189 C41.9961429,56.8221092 39.3867287,59.4443742 36.1666667,59.4482503 L36.1666667,59.4482503 Z M3.5,38.9310357 C4.39391861,42.1733308 4.78738755,45.5342876 4.66666667,48.8965399 C4.78738755,52.2587923 4.39391861,55.6197491 3.5,58.8620442 C2.60608139,55.6197491 2.21261245,52.2587923 2.33333333,48.8965399 C2.21261245,45.5342876 2.60608139,42.1733308 3.5,38.9310357 Z M5.85666667,59.0613543 C6.49483333,57.2019084 7,54.0903263 7,48.8965399 C7,43.7027536 6.49483333,40.5911714 5.8555,38.7293808 C13.2691902,39.7583121 20.7334538,40.3778853 28.2146667,40.5853094 C28.9144181,43.2978707 29.2348291,46.0951503 29.1666667,48.8965399 C29.1666667,49.0665397 29.1666667,49.2283326 29.1596667,49.3912979 C27.7596348,51.7262565 27.6185442,54.6112819 28.784,57.0729431 L28.7326667,57.1972188 C21.0784299,57.3857544 13.4409157,58.0089084 5.85666667,59.0636991 L5.85666667,59.0613543 Z M31.9748333,67.6551362 L31.1231667,65.6854836 C30.867018,65.0940565 30.18358,64.82164 29.5936667,65.0758292 L27.6301667,65.9481039 L30.366,59.3568022 C31.4892108,60.5005698 32.9221288,61.2874191 34.4866667,61.6195578 L31.9748333,67.6551362 Z M42.7396667,65.0758292 C42.1497533,64.82164 41.4663153,65.0940565 41.2101667,65.6854836 L40.3468333,67.6352052 L37.8455,61.617213 C39.4112553,61.2849323 40.8453621,60.4976908 41.9696667,59.3532849 L44.6996667,65.9187936 L42.7396667,65.0758292 Z M66.2666667,59.3896297 C58.7712035,58.2303588 51.2130855,57.5256365 43.6333333,57.2792876 L43.5505,57.0776327 C45.0177055,53.9706774 44.3886998,50.2727789 41.9778333,47.8319896 C41.9688108,45.4005788 41.68941,42.9777973 41.1448333,40.6087576 C49.55742,40.4194591 57.9489534,39.682421 66.2666667,38.4022777 C66.808,39.3261386 67.6666667,42.9805476 67.6666667,48.8965399 C67.6666667,54.8125322 66.8021667,58.4657688 66.2666667,59.3896297 L66.2666667,59.3896297 Z" id="Shape"></path>
            </g>
        </g>
    </g>
</svg>