<?xml version="1.0" encoding="UTF-8"?>
<svg width="24px" height="24px" viewBox="0 0 24 24" version="1.1" xmlns="http://www.w3.org/2000/svg" xmlns:xlink="http://www.w3.org/1999/xlink">
    <title>Combined Shape</title>
    <g id="Main.Landing" stroke="none" stroke-width="1" fill="none" fill-rule="evenodd">
        <g id="Home-Landing_Fonts" transform="translate(-709.000000, -5006.000000)" fill="#FFFFFF" fill-rule="nonzero">
            <g id="Group-5" transform="translate(0.000000, 4759.000000)">
                <path d="M714,253.857143 L714,271 L709,271 L709,253.857143 L714,253.857143 Z M727.342556,253.857143 C730.575689,253.857143 733,256.251059 733,261.39573 L733,271 L728.086414,271 L728.086414,262.039294 C728.086414,259.787345 727.374885,258.251513 725.596831,258.251513 C724.239352,258.251513 723.430838,259.287493 723.075535,260.287546 C722.945606,260.64543 722.913894,261.14563 722.913894,261.64618 L722.913894,271 L718,271 L718.000686,270.834268 C718.000797,270.807205 718.00092,270.776969 718.001054,270.743664 L718.001998,270.507854 C718.007898,269.017605 718.025025,264.414136 718.028118,260.464239 L718.028261,258.397207 C718.028175,258.288489 718.028072,258.180999 718.02795,258.074844 L718.027004,257.454755 C718.023881,255.848342 718.01584,254.637066 718,254.250257 L722.913894,254.250257 L722.913894,256.62185 C723.566925,255.480527 724.73536,253.857143 727.342556,253.857143 Z M711.51476,247 C713.035312,247 713.971037,248.234674 714,249.857487 C714,251.444483 713.035312,252.714286 711.48524,252.714286 L711.456277,252.714286 C709.964688,252.714286 709,251.444483 709,249.857487 C709,248.234674 709.994207,247 711.51476,247 Z" id="Combined-Shape"></path>
            </g>
        </g>
    </g>
</svg>