<?xml version="1.0" encoding="UTF-8"?>
<svg width="16px" height="16px" viewBox="0 0 16 16" version="1.1" xmlns="http://www.w3.org/2000/svg" xmlns:xlink="http://www.w3.org/1999/xlink">
    <title>Shape</title>
    <g id="Companies'-list" stroke="none" stroke-width="1" fill="none" fill-rule="evenodd">
        <g id="Companies-List-1" transform="translate(-1233.000000, -5.000000)" fill="#FFFFFF">
            <path d="M1248.81354,20.0074322 L1243.13044,14.3243591 C1245.12656,11.8830397 1244.76565,8.28581211 1242.32436,6.28968685 C1239.88307,4.29356159 1236.28581,4.65448017 1234.28969,7.09576618 C1232.29356,9.53705219 1232.65448,13.1343132 1235.09577,15.1304384 C1237.19858,16.8497871 1240.22154,16.8497871 1242.32436,15.1304384 L1248.00747,20.8135449 C1248.23394,21.0322672 1248.59482,21.0259875 1248.81354,20.7995157 C1249.02689,20.5785887 1249.02689,20.2283591 1248.81354,20.0074322 Z M1238.71918,15.2797829 C1236.2016,15.2769436 1234.16139,13.2367599 1234.15858,10.7191816 C1234.15858,8.20043424 1236.20043,6.15858038 1238.71918,6.15858038 C1241.23793,6.15858038 1243.27978,8.20043424 1243.27978,10.7191816 C1243.27978,13.237929 1241.23793,15.2797829 1238.71918,15.2797829 Z" id="Shape"></path>
        </g>
    </g>
</svg>