<?xml version="1.0" encoding="UTF-8"?>
<svg width="112px" height="30px" viewBox="0 0 112 30" version="1.1" xmlns="http://www.w3.org/2000/svg" xmlns:xlink="http://www.w3.org/1999/xlink">
    <title>Group 13</title>
    <g id="Main.Landing" stroke="none" stroke-width="1" fill="none" fill-rule="evenodd">
        <g id="Home-Landing-Final" transform="translate(-164.000000, -30.000000)" fill="#FFFFFF">
            <g id="Group-23" transform="translate(-46.000000, -632.000000)">
                <g id="Group-20-Copy" transform="translate(181.000000, 632.000000)">
                    <g id="Group-13" transform="translate(29.000000, 30.000000)">
                        <polygon id="Path-3" opacity="0.214435" points="94.5209369 15.4737692 81.9609296 3.3803625 80.4301959 4.95130632 79.2097145 9.36438462 79.7161497 12.2955654 81.1387396 14.9998019 83.4908168 16.7914779 86.4335139 17.6947229 89.1667852 17.6947229 92.3285662 16.7914779"></polygon>
                        <polygon id="Path" fill-rule="nonzero" points="10.1913985 18.3281538 10.1913985 16.1247692 2.42947541 16.1247692 2.42947541 0.400615385 0.125936947 0.400615385 0.125936947 18.3281538"></polygon>
                        <polygon id="Path" fill-rule="nonzero" points="18.30386 18.3281538 24.81386 0.400615385 22.2599369 0.400615385 17.1520908 14.9479615 17.0519369 14.9479615 12.1443985 0.400615385 9.59047541 0.400615385 15.9001677 18.3281538"></polygon>
                        <polygon id="Path" fill-rule="nonzero" points="29.2206293 18.3281538 29.2206293 0.400615385 26.9170908 0.400615385 26.9170908 18.3281538"></polygon>
                        <polygon id="Path" fill-rule="nonzero" points="39.6616677 18.3281538 46.1716677 0.400615385 43.6177446 0.400615385 38.5098985 14.9479615 38.4097446 14.9479615 33.5022062 0.400615385 30.9482831 0.400615385 37.2579754 18.3281538"></polygon>
                        <polygon id="Path" fill-rule="nonzero" points="58.6908985 18.3281538 58.6908985 1.92796154 63.7737062 1.92796154 63.7737062 0.400615385 52.0056293 0.400615385 52.0056293 1.92796154 57.0884369 1.92796154 57.0884369 18.3281538"></polygon>
                        <polygon id="Path" fill-rule="nonzero" points="76.4431677 18.3281538 76.4431677 16.8008077 67.9300908 16.8008077 67.9300908 10.1155385 75.6419369 10.1155385 75.6419369 8.61323077 67.9300908 8.61323077 67.9300908 1.92796154 76.4431677 1.92796154 76.4431677 0.400615385 66.3276293 0.400615385 66.3276293 18.3281538"></polygon>
                        <path d="M87.5352062,18.7287692 C89.0708985,18.7287692 90.4188023,18.4283077 91.5789177,17.8273846 C92.7390331,17.2264615 93.7197062,16.4419231 94.5209369,15.4737692 L94.5209369,15.4737692 L93.3691677,14.3720769 C92.6347062,15.2567692 91.7917446,15.9495 90.8402831,16.4502692 C89.8888216,16.9510385 88.7871293,17.2014231 87.5352062,17.2014231 C86.5002831,17.2014231 85.5237831,17.0136346 84.6057062,16.6380577 C83.6876293,16.2624808 82.8863985,15.7283269 82.2020139,15.0355962 C81.5176293,14.3428654 80.9751293,13.5165962 80.5745139,12.5567885 C80.1738985,11.5969808 79.9735908,10.5328462 79.9735908,9.36438462 C79.9735908,8.19592308 80.1738985,7.13178846 80.5745139,6.17198077 C80.9751293,5.21217308 81.5176293,4.39007692 82.2020139,3.70569231 C82.8863985,3.02130769 83.6876293,2.48715385 84.6057062,2.10323077 C85.5237831,1.71930769 86.5002831,1.52734615 87.5352062,1.52734615 C89.7218985,1.52734615 91.4996293,2.36196154 92.8683985,4.03119231 L92.8683985,4.03119231 L94.0201677,2.9295 C93.2189369,1.99473077 92.2841677,1.27278846 91.21586,0.763673077 C90.1475523,0.254557692 88.9206677,-6.39488462e-14 87.5352062,-6.39488462e-14 C86.2165139,-6.39488462e-14 84.9979754,0.242038462 83.8795908,0.726115385 C82.7612062,1.21019231 81.7930523,1.87371154 80.9751293,2.71667308 C80.1572062,3.55963462 79.5145523,4.55282692 79.0471677,5.69625 C78.5797831,6.83967308 78.3460908,8.06238462 78.3460908,9.36438462 C78.3460908,10.6663846 78.5797831,11.8890962 79.0471677,13.0325192 C79.5145523,14.1759423 80.1572062,15.1691346 80.9751293,16.0120962 C81.7930523,16.8550577 82.7612062,17.5185769 83.8795908,18.0026538 C84.9979754,18.4867308 86.2165139,18.7287692 87.5352062,18.7287692 Z" id="Path" fill-rule="nonzero"></path>
                        <polygon id="Path" fill-rule="nonzero" points="99.02786 18.3281538 99.02786 9.91523077 109.043245 9.91523077 109.043245 18.3281538 110.645706 18.3281538 110.645706 0.400615385 109.043245 0.400615385 109.043245 8.41292308 99.02786 8.41292308 99.02786 0.400615385 97.4253985 0.400615385 97.4253985 18.3281538"></polygon>
                        <path d="M0.450692308,29.8752663 L0.450692308,26.4628817 L0.422076923,25.6044202 L0.450692308,25.6044202 L2.26776923,28.7878817 L2.53246154,28.7878817 L4.34953846,25.6044202 L4.37815385,25.6044202 L4.34953846,26.4628817 L4.34953846,29.8752663 L4.80023077,29.8752663 L4.80023077,24.7531125 L4.34953846,24.7531125 L2.418,28.1368817 L2.38938462,28.1368817 L0.450692308,24.7531125 L9.9475983e-14,24.7531125 L9.9475983e-14,29.8752663 L0.450692308,29.8752663 Z M12.4173731,29.8752663 L12.9753731,28.3944202 L15.35045,28.3944202 L15.90845,29.8752663 L16.4092193,29.8752663 L14.4276039,24.7531125 L13.8982193,24.7531125 L11.9166039,29.8752663 L12.4173731,29.8752663 Z M15.1859116,27.9651894 L13.1399116,27.9651894 L14.1486039,25.3111125 L14.1772193,25.3111125 L15.1859116,27.9651894 Z M23.9762847,29.8752663 L23.9762847,27.7434202 L24.9921308,27.7434202 L26.4372078,29.8752663 L26.9594385,29.8752663 L26.9594385,29.846651 L25.5000539,27.7148048 L25.5143616,27.6933433 C25.6908232,27.6551894 25.8553616,27.5919971 26.007977,27.5037663 C26.1605924,27.4155356 26.2929385,27.3094202 26.4050155,27.1854202 C26.5170924,27.0614202 26.6053232,26.9195356 26.6697078,26.7597663 C26.7340924,26.5999971 26.7662847,26.4294971 26.7662847,26.2482663 C26.7662847,26.0288817 26.7257462,25.8273817 26.6446693,25.6437663 C26.5635924,25.460151 26.4527078,25.3027663 26.3120155,25.1716125 C26.1713232,25.0404587 26.0067847,24.9379202 25.8184001,24.8639971 C25.6300155,24.790074 25.4285155,24.7531125 25.2139001,24.7531125 L25.2139001,24.7531125 L23.5184385,24.7531125 L23.5184385,29.8752663 L23.9762847,29.8752663 Z M25.1495155,27.3141894 L23.9762847,27.3141894 L23.9762847,25.1894971 L25.1995924,25.1894971 C25.356977,25.1894971 25.5024385,25.2169202 25.635977,25.2717663 C25.7695155,25.3266125 25.8851693,25.4005356 25.9829385,25.4935356 C26.0807078,25.5865356 26.1582078,25.6986125 26.2154385,25.8297663 C26.2726693,25.9609202 26.3012847,26.1004202 26.3012847,26.2482663 C26.3012847,26.405651 26.2702847,26.5499202 26.2082847,26.681074 C26.1462847,26.8122279 26.0616308,26.9243048 25.9543232,27.0173048 C25.8470155,27.1103048 25.7242078,27.1830356 25.5859001,27.2354971 C25.4475924,27.2879587 25.3021308,27.3141894 25.1495155,27.3141894 L25.1495155,27.3141894 Z M34.5193501,29.8752663 L34.5193501,28.3228817 L35.3992732,27.3070356 L37.2020424,29.8752663 L37.7528886,29.8752663 L37.7528886,29.846651 L35.7140424,26.9493433 L37.5883501,24.7817279 L37.5883501,24.7531125 L37.0088886,24.7531125 L34.5479655,27.6074971 L34.5193501,27.6074971 L34.5193501,24.7531125 L34.061504,24.7531125 L34.061504,29.8752663 L34.5193501,29.8752663 Z M47.6807232,29.8752663 L47.6807232,29.4388817 L45.2484155,29.4388817 L45.2484155,27.5288048 L47.4518002,27.5288048 L47.4518002,27.099574 L45.2484155,27.099574 L45.2484155,25.1894971 L47.6807232,25.1894971 L47.6807232,24.7531125 L44.7905694,24.7531125 L44.7905694,29.8752663 L47.6807232,29.8752663 Z M56.6499425,29.8752663 L56.6499425,25.1894971 L58.1021733,25.1894971 L58.1021733,24.7531125 L54.7398656,24.7531125 L54.7398656,25.1894971 L56.1920963,25.1894971 L56.1920963,29.8752663 L56.6499425,29.8752663 Z M65.7622387,29.8752663 L65.7622387,27.7434202 L66.9640848,27.7434202 C67.1834695,27.7434202 67.3897387,27.707651 67.5828925,27.6361125 C67.7760464,27.564574 67.9441618,27.4632279 68.0872387,27.332074 C68.2303156,27.2009202 68.3435848,27.0435356 68.4270464,26.8599202 C68.5105079,26.6763048 68.5522387,26.4724202 68.5522387,26.2482663 C68.5522387,26.0241125 68.5105079,25.8202279 68.4270464,25.6366125 C68.3435848,25.4529971 68.2303156,25.2956125 68.0872387,25.1644587 C67.9441618,25.0333048 67.7760464,24.9319587 67.5828925,24.8604202 C67.3897387,24.7888817 67.1834695,24.7531125 66.9640848,24.7531125 L66.9640848,24.7531125 L65.3043925,24.7531125 L65.3043925,29.8752663 L65.7622387,29.8752663 Z M66.9855464,27.3070356 L65.7622387,27.3070356 L65.7622387,25.1894971 L66.9855464,25.1894971 C67.142931,25.1894971 67.2883925,25.2169202 67.421931,25.2717663 C67.5554695,25.3266125 67.6711233,25.4005356 67.7688925,25.4935356 C67.8666618,25.5865356 67.9441618,25.6986125 68.0013925,25.8297663 C68.0586233,25.9609202 68.0872387,26.1004202 68.0872387,26.2482663 C68.0872387,26.3961125 68.0586233,26.5344202 68.0013925,26.6631894 C67.9441618,26.7919587 67.8666618,26.9040356 67.7688925,26.9994202 C67.6711233,27.0948048 67.5554695,27.1699202 67.421931,27.2247663 C67.2883925,27.2796125 67.142931,27.3070356 66.9855464,27.3070356 L66.9855464,27.3070356 Z M78.5373041,29.8752663 L78.5373041,29.4388817 L76.219458,29.4388817 L76.219458,24.7531125 L75.7616118,24.7531125 L75.7616118,29.8752663 L78.5373041,29.8752663 Z M85.7896003,29.8752663 L86.3476003,28.3944202 L88.7226772,28.3944202 L89.2806772,29.8752663 L89.7814465,29.8752663 L87.7998311,24.7531125 L87.2704465,24.7531125 L85.2888311,29.8752663 L85.7896003,29.8752663 Z M88.5581388,27.9651894 L86.5121388,27.9651894 L87.5208311,25.3111125 L87.5494465,25.3111125 L88.5581388,27.9651894 Z M99.108358,29.9897279 C99.5471273,29.9897279 99.9322427,29.9038817 100.263704,29.7321894 C100.595166,29.5604971 100.875358,29.3363433 101.104281,29.0597279 L101.104281,29.0597279 L100.775204,28.7449587 C100.565358,28.9977279 100.324512,29.195651 100.052666,29.3387279 C99.7808196,29.4818048 99.4660503,29.5533433 99.108358,29.5533433 C98.8126657,29.5533433 98.5336657,29.4996894 98.271358,29.3923817 C98.0090503,29.285074 97.7801273,29.1324587 97.5845888,28.9345356 C97.3890503,28.7366125 97.2340503,28.5005356 97.1195888,28.2263048 C97.0051273,27.952074 96.9478965,27.6480356 96.9478965,27.3141894 C96.9478965,26.9803433 97.0051273,26.6763048 97.1195888,26.402074 C97.2340503,26.1278433 97.3890503,25.8929587 97.5845888,25.6974202 C97.7801273,25.5018817 98.0090503,25.3492663 98.271358,25.239574 C98.5336657,25.1298817 98.8126657,25.0750356 99.108358,25.0750356 C99.7331273,25.0750356 100.24105,25.3134971 100.632127,25.7904202 L100.632127,25.7904202 L100.961204,25.475651 C100.732281,25.208574 100.465204,25.0023048 100.159973,24.8568433 C99.8547427,24.7113817 99.5042042,24.638651 99.108358,24.638651 C98.7315888,24.638651 98.383435,24.7078048 98.0638965,24.8461125 C97.744358,24.9844202 97.4677427,25.1739971 97.2340503,25.4148433 C97.000358,25.6556894 96.8167427,25.9394587 96.6832042,26.266151 C96.5496657,26.5928433 96.4828965,26.9421894 96.4828965,27.3141894 C96.4828965,27.6861894 96.5496657,28.0355356 96.6832042,28.3622279 C96.8167427,28.6889202 97.000358,28.9726894 97.2340503,29.2135356 C97.4677427,29.4543817 97.744358,29.6439587 98.0638965,29.7822663 C98.383435,29.920574 98.7315888,29.9897279 99.108358,29.9897279 Z M111.296808,29.8752663 L111.296808,29.4388817 L108.8645,29.4388817 L108.8645,27.5288048 L111.067885,27.5288048 L111.067885,27.099574 L108.8645,27.099574 L108.8645,25.1894971 L111.296808,25.1894971 L111.296808,24.7531125 L108.406654,24.7531125 L108.406654,29.8752663 L111.296808,29.8752663 Z" id="MARKETPLACE" fill-rule="nonzero"></path>
                        <circle id="Oval" cx="87.3281808" cy="9.38584615" r="2.90971924"></circle>
                    </g>
                </g>
            </g>
        </g>
    </g>
</svg>