<?xml version="1.0" encoding="UTF-8"?>
<svg width="16px" height="16px" viewBox="0 0 16 16" version="1.1" xmlns="http://www.w3.org/2000/svg" xmlns:xlink="http://www.w3.org/1999/xlink">
    <title>B3F12A79-2FAE-43C9-B7C4-4371465A10EB</title>
    <g id="Main.Landing" stroke="none" stroke-width="1" fill="none" fill-rule="evenodd">
        <g id="Home-Landing-Final" transform="translate(-1000.000000, -5403.000000)" fill="#FFFFFF">
            <path d="M1015.82751,5410.59317 L1014.68556,5409.45121 L1008.40161,5403.16726 C1008.17854,5402.94423 1007.8169,5402.94423 1007.59384,5403.16726 L1001.30986,5409.45121 L1000.16733,5410.59377 C999.948151,5410.82072 999.95441,5411.18236 1000.18136,5411.40154 C1000.40274,5411.61536 1000.75371,5411.61536 1000.9751,5411.40154 L1001.14189,5411.23357 L1001.14189,5418.42356 C1001.14189,5418.73908 1001.39766,5418.99485 1001.71317,5418.99485 L1014.2811,5418.99485 C1014.59662,5418.99485 1014.85238,5418.73908 1014.85238,5418.42356 L1014.85238,5411.23357 L1015.01975,5411.40097 C1015.24669,5411.62015 1015.60833,5411.61386 1015.82751,5411.38695 C1016.04134,5411.16556 1016.04134,5410.81456 1015.82751,5410.59317 Z M1009.71096,5417.85232 L1006.28335,5417.85232 L1006.28335,5413.28214 L1009.71096,5413.28214 L1009.71096,5417.85232 Z M1013.70982,5417.85232 L1010.85349,5417.85232 L1010.85349,5412.7109 C1010.85349,5412.39538 1010.59772,5412.13962 1010.28221,5412.13962 L1005.71207,5412.13962 C1005.39655,5412.13962 1005.14079,5412.39538 1005.14079,5412.7109 L1005.14079,5417.85232 L1002.28445,5417.85232 L1002.28445,5410.09105 L1007.99712,5404.37834 L1013.70982,5410.09105 L1013.70982,5417.85232 Z" id="Shape"></path>
        </g>
    </g>
</svg>