<?xml version="1.0" encoding="UTF-8"?>
<svg width="30px" height="24px" viewBox="0 0 30 24" version="1.1" xmlns="http://www.w3.org/2000/svg" xmlns:xlink="http://www.w3.org/1999/xlink">
    <title>twitter</title>
    <g id="Main.Landing" stroke="none" stroke-width="1" fill="none" fill-rule="evenodd">
        <g id="Home-Landing-Final" transform="translate(-709.000000, -5055.000000)" fill="#FFFFFF" fill-rule="nonzero">
            <g id="Group-23" transform="translate(-46.000000, -632.000000)">
                <g id="Group-22" transform="translate(46.000000, 5391.000000)">
                    <g id="twitter" transform="translate(709.000000, 296.000000)">
                        <path d="M30,2.84123077 C28.884375,3.32307692 27.695625,3.64246154 26.45625,3.79753846 C27.73125,3.048 28.704375,1.87015385 29.161875,0.450461538 C27.973125,1.14830769 26.660625,1.64123077 25.261875,1.91630769 C24.133125,0.732923077 22.524375,0 20.769375,0 C17.364375,0 14.623125,2.72123077 14.623125,6.05723077 C14.623125,6.53723077 14.664375,6.99876923 14.765625,7.43815385 C9.6525,7.19261538 5.128125,4.77969231 2.08875,1.104 C1.558125,2.01046154 1.246875,3.048 1.246875,4.16492308 C1.246875,6.26215385 2.34375,8.12123077 3.97875,9.19753846 C2.990625,9.17907692 2.02125,8.89661538 1.2,8.45169231 C1.2,8.47015385 1.2,8.49415385 1.2,8.51815385 C1.2,11.4609231 3.331875,13.9052308 6.1275,14.4683077 C5.626875,14.6030769 5.08125,14.6676923 4.515,14.6676923 C4.12125,14.6676923 3.72375,14.6455385 3.350625,14.5643077 C4.1475,16.9624615 6.40875,18.7255385 9.0975,18.7827692 C7.005,20.3944615 4.348125,21.3655385 1.471875,21.3655385 C0.9675,21.3655385 0.48375,21.3433846 0,21.2824615 C2.724375,23.0123077 5.953125,24 9.435,24 C20.7525,24 26.94,14.7692308 26.94,6.768 C26.94,6.50030769 26.930625,6.24184615 26.9175,5.98523077 C28.138125,5.13230769 29.16375,4.06707692 30,2.84123077 Z" id="Path"></path>
                    </g>
                </g>
            </g>
        </g>
    </g>
</svg>